<?xml version="1.0" encoding="UTF-8" standalone="no"?>
<!DOCTYPE svg PUBLIC "-//W3C//DTD SVG 1.1//EN"
"http://www.w3.org/Graphics/SVG/1.1/DTD/svg11.dtd">
<svg viewBox="0 0 1100 684" version="1.1" xmlns="http://www.w3.org/2000/svg" xmlns:xlink="http://www.w3.org/1999/xlink">
<defs>
<clipPath id="c0_9"><path d="M62.1,591.9c-6.5,0,-11.7,-5.2,-11.7,-11.7V53.6c0,-6.4,5.2,-11.7,11.7,-11.7H1038c6.4,0,11.7,5.3,11.7,11.7V580.2c0,6.5,-5.3,11.7,-11.7,11.7Z" /></clipPath>
<style type="text/css"><![CDATA[
.g0_9{
fill: #E3DFD1;
}
.g1_9{
fill: none;
stroke: #A2A0A0;
stroke-width: 0.33;
stroke-linecap: round;
stroke-linejoin: round;
}
.g2_9{
fill: #00BAF1;
}
.g3_9{
fill: #FFFFFF;
}
.g4_9{
fill: #231F20;
}
.g5_9{
fill: #00AEEF;
}
.g6_9{
fill: #FFFFFF;
stroke: #00AEEF;
stroke-width: 0.86609715;
stroke-linecap: butt;
stroke-linejoin: miter;
stroke-miterlimit: 22;
}
.g7_9{
fill: #EE1D23;
}
]]></style>
</defs>
<path fill-rule="evenodd" d="M0,685.9H1100V-1.5H0Z" class="g0_9" />
<image x="35" y="30" width="1029" height="624" xlink:href="shade/1.png" />
<path d="M36.7,44.3c0,-7.1,5.8,-12.9,12.9,-12.9H1050.2c7.1,0,12.9,5.8,12.9,12.9V639.7c0,7.1,-5.8,12.9,-12.9,12.9H49.6c-7.1,0,-12.9,-5.8,-12.9,-12.9Z" class="g1_9" />
<image x="50" y="41" width="1001" height="552" xlink:href="shade/2.png" />
<image x="50" y="41" width="1001" height="552" xlink:href="shade/3.png" />
<g clip-path="url(#c0_9)">
<path fill-rule="evenodd" d="M549.8,489.4v-.5Zm.5,-83.4v-7.9h.1c.1,-8.8,.4,-24.5,.4,-36h-.2l-.2,-20.2v.1c-.3,-4,-.3,-7.2,-.4,-11.2c-.1,-5,-.2,-6,-3.4,-2.6c-3.9,4,-6.7,6.6,-10.6,10.4c-3.8,3.7,-7,7.1,-11,10.8c-1.4,1.2,-1.5,1.6,-2.8,2.9l-7.6,7.7c-6.8,5.7,-14.6,14.6,-21.4,21.3c-12.2,12.2,-25.7,24.9,-37.3,37.6c-1.4,1.4,-1.5,1.4,-3,2.7l-23.7,23.8c-2.4,2.2,-3.6,4,-5.6,5.7l-8.1,8c-3.1,2.4,-4.3,4.9,-7.6,7.7c-2.4,1.8,-3.8,3.3,-5.9,5.4c-3.4,3.6,-13.7,12.6,-14.4,16.2c2.8,.8,34.3,.9,61.8,.9v-.1l100.4,-.8v.5c.4,-2.6,.5,-61.4,.5,-82.9Zm509.3,-57.3c1.4,-7.6,1.3,-139.5,0,-145c-3.5,.6,-7.5,6.1,-10,8.5L931.9,329.8c-3.7,3.4,-16,14.7,-16.6,19.1ZM603.1,384.4c-.7,.3,-1.6,.5,-2.1,0h-7.2c-2.3,.3,-7.6,.1,-9.9,.1c-6.2,0,-14.4,-.5,-20.4,.1c-1.1,8.6,.3,18.9,-.2,27.8c0,.5,0,1,-.1,1.5v19.4c.6,6.6,.4,19.3,.1,32.7l.1,13.4l-.4,.7c-.2,13.8,-.3,26.3,.5,31.3c3.3,-.8,5.2,-3.5,9.1,-7.3c28.8,-28.2,57.2,-58.2,86.9,-87.2c5.2,-5.2,10.1,-10.3,15.7,-15.7c2.5,-2.5,13.9,-13.6,14.8,-16c-4.3,-2,-57.2,-1,-78.7,-.8ZM931.4,115c-1.2,1.4,-.6,-.2,-.6,1.8c0,1.7,2,2.8,2.3,3.3c-3,1,-2.6,1.5,-3.9,4.1c-1.2,-1.4,-.7,-2.1,-2.3,-2.8c-1.3,-.6,-1.2,-.2,-2.5,.3c.5,3.3,1.1,2.4,2.9,4.1c-2.6,1.2,-2.3,1.5,-4.3,3.5c-1.8,-2.6,-.1,-2,-4,-2.4c.1,4.6,2.2,4.1,2.7,4.4c-4.8,2.9,-2.6,2,-4.8,3.8c-1.2,-2.3,0,-2.2,-2.9,-2.6c-1.4,1.6,-.1,-.2,-1.2,2c1,1.8,2.7,2.1,2.7,2.1c.1,-.1,.4,.2,.4,.1l-4.6,4.3C910,139.6,910,138.9,908,138.4l-1.4,1.7c.8,1.9,-.1,.5,1.6,1.5l2.2,.8c-2.7,1.8,-4.7,4.4,-6.8,6.6l5.3,5.1c2,-2.2,.5,-2.7,3.2,-3.7l.3,.8c.1,.1,.1,.3,.2,.4c0,.1,.1,.3,.2,.4c0,.1,.1,.4,.2,.4c1.1,1.7,-.2,.5,1.5,1.7c5.1,-3,-.6,-1.8,3.2,-3.7c3,1.5,-.7,.4,2.4,3.7l2.9,-3.2c.1,-.3,.2,-.4,.4,-.5c1.5,1.8,.7,2.7,3.2,3.7c2.4,-1.5,.2,.4,1.6,-1.9l.8,-1.8c12.4,0,94.9,1.1,99.2,-.7c1.1,-2.9,1.1,-120.3,0,-123c-3.6,-.1,-1.4,-.6,-4.3,2l-89.2,89.7l-1.2,-2.2c-1.4,-1.4,.3,-.8,-2.1,-1.2ZM679.9,312.2c3.3,-1,14.5,-13.9,18.3,-17.7l32.3,-32.2c2.2,-2.2,4.5,-4.5,6.9,-6.7l43.2,-43.1c5.2,-5.1,13.1,-10.5,12.5,-14.7c-3.5,-.9,-36.6,-.2,-46,-.1c-11.4,.1,-60.3,-2.5,-68,.5c-.4,1.3,-.9,26.7,-.8,32.1l.6,68.5c0,4.7,-1.4,10.1,1,13.4Zm-4,143.4c2.7,-.8,18.7,-17.2,22,-20.4l32.4,-32.1c3.8,-3.8,6.5,-7.1,10.4,-10.6q2.8,-2.4,2.8,-7.5l-.1,-31.4c-2.9,.2,-2.9,1,-5.2,3.4l-47.4,47.7c-7.1,7.2,-15.7,13.1,-15.7,18.9ZM654.8,375.2c4.2,-1.3,23.2,-21.8,27.3,-25.9c4.5,-4.5,24.4,-23.4,25.3,-27.6l-52.8,.2c-.8,5.3,-1,49.2,.2,53.3ZM603.9,542.7c0,7.3,3.2,3.8,5.7,1.5l33.7,-33.9c3.4,-3.3,11.7,-10.5,12.6,-14.5c-5.6,-.7,-47.9,-.9,-51.1,.2c-1.9,4.1,-.9,39.5,-.9,46.7Zm257.3,-206c1,-1.4,1.1,-3.8,-1.9,-3.2c-2,.5,-22.5,21.8,-24.3,23.6l-95.5,95.5c-5.1,5.1,-9.1,8.7,-13.7,13.7c-4.8,5.1,-9.2,8.8,-13.8,13.6l-54.8,54.7c-1.4,1.4,-2.1,2,-3.5,3.7c-1.5,1.8,-1.6,1.9,-3.2,3.3c-1.7,1.5,-5.8,4.6,-6.5,6.6c-4,10.6,12.1,-6.8,12.4,-7.1c4.8,-4.7,9.2,-9.1,13.7,-13.7c4.8,-4.9,8.5,-8.7,14,-13.5ZM388.5,425.4c3.9,1.3,5.5,-1.7,7.6,-4.2l71,-70.9c9.2,-9.3,17.2,-17,25.7,-25.7l90.4,-90.2c6,-6.5,11.5,-9.2,9.5,-13.6c-3.5,.7,-5.3,3.3,-7.3,5.3L489,322.3c-18.5,19.5,-38.1,37.6,-57.3,58c-10.3,10.9,-22.3,21.5,-32.6,31.8c-4.4,4.4,-11.3,9.8,-10.6,13.3Zm479.2,71.3c0,0,1.9,-.2,.9,-2.5c-.4,-1.1,-1.7,-1.6,-2,-1.7c3.2,-2.8,5.2,-5.2,7.5,-7.5c2.6,2,.6,1.9,3.7,1.9c.5,-1.4,-.1,-2.2,-.6,-3.6l-.6,-1.2c2.4,-1.8,4.8,-4.2,6.4,-6.4c2.1,.8,1.8,1.9,4.9,1.8l-2.1,-3.6c-.1,-.3,-.3,-.3,-.5,-.4c2.9,-2.4,5.6,-5.3,8.1,-8.1l.5,1.2c1.6,2.5,-.3,1.1,2.1,2c5.6,-6.9,-4.4,-.3,.7,-6.3c1.6,-2,3.1,-2.5,4.8,-5.2c6.4,1.4,-5.2,-1.9,2.4,1.1c1.4,.5,-1.9,.4,2.7,.8c-.1,-5.2,-.3,-.9,-1.9,-5.1l25.5,-25.1c3.7,-3.7,23.5,-22.5,24.4,-25.3c-3.4,-1.9,-3.8,-1.2,-7,2.4l-40.1,39.8c-1.7,.9,-1.6,.5,-2.4,.9c-3.7,2,-.5,5.7,-8.3,9.3c-4.9,2.4,-1.4,.5,-3.2,3.9c-3.4,6.4,-7.1,3.7,-8.6,7.2c-.1,.2,-.1,.4,-.2,.5c-1,2.6,-2.8,5,-5.5,6.3l-2.9,1.2c-2.7,1.9,-1.9,9,-10.2,9.2c-1.1,6.3,-4.4,8.7,-9.6,9.5c-.7,5.3,-2,5.4,-4.8,8.2l-80.6,80.5c-1.8,1.8,-10.2,8.8,-10.1,11.1c.1,6.5,11,-6.8,14,-9.6c4.4,-4.2,8.6,-8.5,12.9,-12.9l77.8,-77.6c.1,3.3,1.3,3.1,1.9,3.3ZM736.2,55.5c-4.1,-.2,-4.6,1.7,-7,4.2L713.1,75.9C692,97.2,669.5,118.7,649,139.9c-7.2,7.6,-14.9,14.5,-21.8,21.7l-58.8,58.9c-1.9,1.8,-5.3,3.8,-3.1,5.8c2.1,2.2,8.1,-5.4,11.5,-8.7l21.7,-21.9c2,-1.8,3.3,-3.2,5.3,-5.1L694.9,99.5c7.2,-7.4,14.3,-14,21.3,-21.3L732.3,62.1c4.6,-4.4,3.9,-3.4,3.9,-6.6ZM946.6,21h-5C939.3,24.6,927,36.3,923.1,40c-6.7,6.5,-12.7,12.7,-19.4,19.3L797.4,165.7c-3.9,3.7,-8.3,7,-8.7,10.8c4.6,.3,2.5,.9,5,-1.6l52.9,-53.7c2,2.3,4.4,6.9,5.2,.2c-2.9,-.5,-2.2,.4,-4.6,-.7c4.8,-2.7,3,-1.7,6.5,-5.8L872.1,96.2c5.1,-4.4,7.8,-8.3,12.6,-12.4l50,-50C937,31.4,945.3,24,946.6,21ZM924.9,256.1c2.8,1.3,4.9,-2.1,7.1,-4.3l70.9,-70.9c4.3,-4.2,8.4,-8.5,13,-12.8c1.3,-1.2,2,-2,3.2,-3.2c4.6,-4.2,8.4,-6.5,8.2,-11c-4.4,-.1,-7.6,5.9,-13.9,11.7c-12,11.2,-26.6,26.6,-38.8,38.6c-11.6,11.5,-33.7,34.6,-45.1,45.1c-2.4,2.1,-5.4,4.4,-4.6,6.8ZM774.8,475.9c-2,-1.8,-3.3,-1.2,-2.3,-5.5c.9,-4.2,2.1,-1,2,-4.3c-3.2,-2.6,-4.7,-2.1,-7.6,.9c-2.9,3.1,-2.7,2.1,-3.7,6.9l.5,47.9c10.5,-2,8.5,-15.4,8.6,-20.2c0,-5.2,-.3,-3.7,2.5,-6.4c-1.7,-3.6,-2.5,.9,-2.5,-4.8c0,-5.7,.3,-1.3,2.5,-4.8c-2.6,-3,-2.5,.2,-2.5,-4.9c0,-4.6,1,-1.4,2.5,-4.8Zm5.6,28.5c4.4,-.5,9.1,-5.1,9.1,-10c0,-7.7,.7,-42.2,-.4,-47c-.2,-.1,-.5,-.1,-.6,-.1c-.1,0,-.4,0,-.6,0c-2.8,.4,-7.6,5.5,-7.6,9.3Zm-68.8,64.9c0,9.3,9.2,-1.5,9.2,-6.4V519.4c0,-8.6,-9.2,1.2,-9.2,6.4ZM802.4,487c1.2,-1.8,.3,-.8,1,-2.2c1,-2,0,-.3,1.1,-2c1.3,-1.9,1.8,-1.5,1.8,-4.5V433.2c0,-9.5,-8.8,3.2,-8.8,5.7c0,9.8,-.7,40.8,.3,48.3Zm-73.5,68.8c3.2,-.3,3,-.1,6.7,-4.1c2.4,-2.7,2,-2.9,2,-7.3V516.2c0,-4.9,1.7,-13.9,-.7,-17.4c-.8,-.8,1.2,-1.7,-2,.5c-2.6,1.8,-6.1,5.3,-6.1,8.8Zm17.8,-17c3.4,-.6,3,-1.2,5.4,-3.6c2.2,-2.3,2.6,-1.9,2.7,-6.1l.3,-41.6c.5,-4,.1,-2.4,-.6,-6.3c-3,.8,-5.7,3,-7.2,5.7c-1.2,2.2,-.5,2.7,-1.3,4.9c-1,2.7,-1.5,1.8,-2.1,3.4c3.4,4,2.5,3,2.5,9.7c-.1,7.1,-.5,29.8,.3,33.9ZM823.1,193.1c1.1,-1.1,2.1,-5.9,-2,-3.9l-71.2,70.9c-2.2,2.6,-2.3,5.6,2,3.8ZM671.8,155.4c0,-5.5,1.2,-15.3,-1.7,-15.7c-7.1,-1.2,-4.6,23.6,-4.6,30.2c0,8.8,-1,28.1,.8,35.2c6.1,-1.3,5.5,-5.9,5.5,-12.6ZM622.7,248c6.8,.5,5.7,-7.4,5.6,-12.9l-.3,-52c-6.3,.2,-5.7,5.8,-5.6,11.8c0,12.5,-.9,45,.3,53.1Zm95.5,-95.5c3.4,1.4,5.5,-1.7,5.5,-5.9c0,-10.5,.9,-51.4,-.4,-58.6c-3.7,-.2,-5.4,2.4,-5.4,6.2Zm-9,9.1c6,.2,5.8,-5.8,5.7,-11.8V96.3c-3.6,.3,-5.8,1.4,-5.8,5.2Zm320.6,37.2c4.8,1.7,10.3,-5.9,16.6,-12.3l38.3,-38.3c4.6,-4.6,6.6,-4.7,5.5,-9.6c-4.3,.8,-12.8,10.7,-16.2,14.3l-30.2,30.3c-2.9,2.7,-13.3,11.7,-14,15.6ZM657.5,214c6.1,-1.2,5,-5.9,5.1,-12.7c0,-9.8,.6,-48.7,-.5,-53c-6.3,.1,-5,6.4,-5,12.8c.1,10.8,-.7,47.2,.4,52.9Zm35.2,-35.1c2.2,.6,4.6,-2.2,4.6,-5.8c.1,-12.6,.8,-49.9,-.4,-59.9c-3.1,.9,-5,2.8,-5,6.8c0,11.2,-.8,50.9,.8,58.9Zm45.7,153.2c3.2,-.9,3.1,-1.4,5.2,-3.6l42.6,-42.7c3.4,-3.4,13.9,-10.8,14.4,-15.9c-2.9,-1.1,-2.9,-.8,-4.9,1.1l-44.2,43.7c-7.3,7.3,-14.3,11.7,-13.1,17.4ZM684.3,188c2.5,-.9,4.7,-2.8,4.7,-6.8V126.4c0,-8.2,-5.5,-2.4,-5.5,1.6c0,8.9,-1.1,55.3,.8,60Zm-52.1,51.9c2.7,-.8,4.8,-2.7,4.8,-5.6V178c0,-7.2,-5.4,-2.7,-5.4,2.4l-.2,55.6Zm43,-43.6c4,-.3,5,-2.2,5,-6.2c0,-16.6,.5,-43.6,-.2,-58.9c-3.5,0,-4.6,.7,-5.1,4.1Zm-26.5,24.4c0,3.6,3.2,.9,4.1,-.4c1.6,-2.1,1,-5.1,1,-8.5c-.1,-10.1,1.2,-52,-.9,-55.2c-2.4,1.1,-4.2,2.7,-4.2,6.1Zm78.4,-76.2c3.2,-.5,5,-1.5,5,-5.2v-58c0,-4.2,-3.9,-1.6,-4.6,.1c-1,2.3,-.4,59.3,-.4,63.1ZM705.3,105.1c-7.4,-.3,-4.6,13.6,-4.6,18.9l.1,46.7c3.1,-.4,4.9,-2.1,4.9,-5.6c0,-11.8,.6,-51.3,-.4,-60ZM641.6,231.2c.6,-.6,2.8,-2.1,3.8,-4.1c0,-.2,.5,-58.5,-.6,-61.6c-2,.2,-3.4,1.7,-4.4,3.6l-.1,55.6c0,4.1,-.2,4.9,1.3,6.5ZM810.3,353.7c2.6,.3,4.3,-2.3,4.3,-5.8c.1,-11.6,1.1,-51.5,-.5,-60c-4.6,1.4,-4.1,7.1,-4.1,13.3c.1,11.8,-.7,45.4,.3,52.5Zm-8.4,9.2c5.2,-1.6,4,-7.4,3.9,-13.4c0,-16.1,.6,-37.6,-.1,-52.4c-6.2,1.1,-4.6,7.1,-4.5,13.7c.1,6,0,11.7,0,17.8c0,6.7,-.7,29.4,.7,34.3Zm26.7,-26.7c5.4,-1.4,4.4,-13.2,4.1,-21.3c-.6,-15.9,.7,-31.8,-.2,-44.5c-3.7,.6,-4.4,1.7,-4.4,5.8c-.1,11.7,-.9,51.4,.5,60ZM872.5,233.5c0,10.9,.4,22,.4,33c0,4.2,-2,34,3.4,22.4c1.7,-3.5,1.5,-60.4,.1,-63.2c-3.5,1,-3.9,3.6,-3.9,7.8ZM765.6,398.4c5.6,-.5,4.2,-7.8,4.2,-13.5c0,-9.7,1.2,-49.2,-1,-52.6c-2.3,3.2,-4.1,.9,-3.6,13.2Zm89.6,-88.7c5.3,-1.8,3.9,-7.7,3.9,-14.2c-.1,-11.5,.7,-46.1,-.1,-52.4c-5.7,2.2,-4.2,6.9,-4.1,13.8c.1,11.9,-.9,45.8,.3,52.8Zm-35.5,35.4c5,-1.8,3.7,-7.6,3.7,-14.1l-.1,-51.5c-5.5,.2,-4.8,6.9,-4.5,14.4c.4,8.2,-.5,48.9,.9,51.2ZM792,322.9c1.3,15,-.5,32.8,.6,49c2.2,-.7,4,-1.7,4,-4.7c0,-10.1,.7,-54.9,-.3,-61.4c-5.8,2.3,-4.3,6.8,-4.3,17.1Zm48.8,-61.7c-5,1,-4.2,6.7,-4.1,11.5c.3,17.4,-.5,38.7,.3,54.6c5.9,-1.8,4,-7.1,4,-14c0,-9,.7,-49.1,-.2,-52.1Zm26.6,-26.5c-6.9,2.1,-3.7,16.3,-3.7,23.8v42c5.9,-1.2,4.2,-7.4,4.1,-13.8c0,-10.1,.8,-47.1,-.4,-52Zm-79.9,80.5c-5.8,-.3,-4.4,9.1,-4.3,15l.5,50.8c2.6,-1.1,4.1,-2.2,4.1,-5.7Zm-8.5,8.5c-3.5,.8,-4,1.4,-4.4,5.2l.4,60.9c5.5,-2.2,4,-7,4,-13.7ZM511.7,340.3c4,.3,5.7,-2.9,7.9,-5.2l33,-33c3.4,-3.5,13.3,-11.6,11.1,-13.8c-1.9,-1.8,-5.8,3.4,-7.3,4.7l-33,33.1c-4.4,4.4,-12.1,10.6,-11.7,14.2ZM850.3,252.5c-3.5,.7,-4.1,1.5,-4.4,5.1c-.6,8.5,.1,60.2,1.1,60.5c1,.4,2.8,-2.3,3,-4.8Zm-472.6,316c4.3,.2,5.9,-1.8,5.9,-6.4c0,-7.2,.6,-18.3,-.5,-24.9c-3.3,.3,-5.8,2.6,-5.8,6.4c0,8.2,-.5,16.8,.4,24.9Zm9.7,-9c7.7,-1.4,5.8,-15,5.9,-25.6c0,-11.4,-6.4,-4,-6.4,0c0,8.2,-.6,17.7,.5,25.6ZM397,550c6.6,-.8,5,-6.3,5,-13.7c0,-3.2,0,-6.4,0,-9.7c0,-2.5,.3,-6.1,-.8,-8.5c-2.6,.2,-4.6,2.6,-4.6,6.9c-.1,8.2,-.7,16.9,.4,25Zm-28.4,28.2c6.2,-.9,5.3,-7,5.3,-13.7c0,-5.2,.5,-13.4,-.5,-17.8c-6.6,.9,-4.9,6.8,-4.9,13.8c0,5.8,-.2,11.9,.1,17.7ZM941,223.4c1.8,.1,3.6,-1.4,4.5,-3.2c1.1,-2.3,.7,-5.5,.7,-8.4c0,-5,.8,-12.9,-.6,-17.4c-5.9,-.1,-5.3,6,-5.3,11.8c0,3.7,-.7,14,.7,17.2Zm-534.4,317c2.5,-.2,1.8,.4,3.5,-1.3c.4,-.4,.7,-1,1,-1.6c.6,-1.2,.5,2.1,.5,-2c.1,-8.2,.9,-19.4,-.5,-27.1c-2.1,.5,-4,2.1,-4.4,4.6Zm504,-305.3c0,-3.4,1.3,-2.6,-.9,-5.6c-1.7,.5,-1.3,-.1,-3.1,1.8c-2.2,2.5,-1.5,7.2,-1.5,11.1c0,4.5,-.7,13.4,1,16.4c6.7,-2.6,4.5,-11.5,4.5,-23.7ZM345.4,511.9c-4.6,-1.5,-9.1,5.8,-15.9,12.6c-2.2,2.2,-14.9,13.7,-14.5,15.8c1,5.2,7,-3.4,8,-4.5c4.9,-5.3,10,-9.2,15.3,-15.4c3.9,-4.6,6,-3.6,7.1,-8.5ZM914.6,249.5c5.9,0,5.2,-6,5.2,-11.9c0,-4.8,.5,-13.1,-.5,-16.9c-6.2,.4,-5,5.7,-5,12c.1,5.3,-.3,11.6,.3,16.8ZM416.3,530.8c2.5,-.5,5,-2.6,5,-5.8l-.2,-25.8c-6.8,.8,-4.9,6.5,-4.9,13.8c0,5.9,0,11.9,.1,17.8ZM939.9,472.2c5.5,-2.1,4.2,-6.4,4.2,-13.2c0,-5.5,.6,-12.2,-.4,-17c-6,.8,-4.6,5.6,-4.6,13.8c0,4.7,-1.2,13.3,.8,16.4Zm38.3,-38.1c5.4,-1.8,4,-7.3,4,-13.7c0,-5.1,.4,-11.9,-.3,-16.7c-6,1.6,-4.6,6,-4.7,13.4c-.1,3.9,-.4,14.6,1,17ZM950.1,214.9c6.8,-1.9,4.5,-13.4,4.5,-27.3c0,-4.4,-3.6,-1.2,-4.4,.2c-1.2,2.1,-.7,5.9,-.7,8.7c.1,4.9,-.5,14.7,.6,18.4Zm-18.6,17.2c6.9,.4,5.1,-5.4,5.1,-12.3c-.1,-5.5,.5,-11.5,-.4,-17c-5.2,1.5,-4.7,5.7,-4.7,12.2c.1,5.7,0,11.4,0,17.1Zm55.2,192.6c6.5,-1.3,4.8,-7,4.7,-13.2c0,-3.9,.9,-14.1,-.3,-16.7c-3,.1,-4.1,1.4,-4.6,4.7Zm-52.9,26.9c-3.2,.5,-3.7,1.1,-4,4.9c-.2,4,-.8,24.3,1.1,25.1c1,.5,3.1,-2.5,3.6,-4.2c.2,-1.1,.8,-23.4,-.7,-25.8ZM923.1,241.1c3.5,-.6,5.1,-2,5.1,-6c0,-6.5,.5,-16.9,-.4,-22.9c-5.6,-.4,-4.7,6.2,-4.7,11.7c.1,5.7,0,11.5,0,17.2Zm49.3,172c-4.2,.9,-4.5,2.2,-4.5,7.2c0,3,-.5,21.9,.6,23.2c1.2,1.4,4.1,-2.1,4.1,-5.4ZM801.3,258c6,-.5,23.6,-21.5,23.9,-22.4l-1,-1.9c-3.9,1.1,-16,14.3,-20.5,18.8c-3.2,3.2,-2.4,1.3,-2.4,5.5ZM359.9,587.9c.8,0,3.1,-2.2,4,-4.1l-.6,-27.7c-2.1,.1,-4.4,2,-4.4,6ZM958.8,453.3c2.8,-.6,4.1,-1.9,4.1,-5.6l-.1,-24.9c-2.6,.4,-4.1,1.3,-4.5,4.8Zm-9.6,9.7c2.6,-.9,2,-1.1,4,-2.4V432.4c-3.2,.4,-4.1,1.5,-4.5,5ZM635,472.4c3.6,.2,4,-1.5,6.2,-3.7l13.3,-13.3c1,-1.4,.5,-1.2,1.6,-2.5c-.8,-.7,-1.1,-.9,-2,-1.5c-4.2,1.2,-8,6.3,-11,9.5c-5.7,5.9,-9,6.8,-8.1,11.5ZM792.8,129.9c3.1,-1.3,3.4,-2.9,3.4,-7.5c0,-6.4,.4,-10.7,-.4,-16.7c-3.1,.3,-4.2,1.9,-4.2,5.4v15.4c.2,1.8,.1,.9,.5,2.2Zm22,-23.2c3.5,-.5,3.9,.1,4.1,-4.3c.2,-3.7,.7,-17,-1.2,-19.9c-.9,.6,-1.3,.3,-2.4,2c-1.4,2.3,-.7,19.9,-.5,22.2Zm-7.1,8c4,-1.2,3.6,-4.8,3.6,-10c0,-4.8,.2,-9.6,-.1,-14.4c-2.6,.4,-2.7,1.2,-4.1,3.1c0,5.4,-1,16.8,.6,21.3Zm-30.9,30.9c4.7,-2.1,4,-4.2,3.9,-10.3c0,-4.8,.2,-9.7,-.1,-14.5c-5,1.2,-4.1,5.2,-4.1,10.5c0,4.7,-.3,9.6,.3,14.3Zm10.3,-32.7c-3.9,2.3,-2.6,6.9,-2.6,12.7c0,3.8,-1.1,9.3,1,11.7c2.2,-1.7,2.6,-1.8,2.8,-6c.1,-3.6,.8,-15.4,-1.2,-18.4Zm13.4,9c1.7,-1.1,2.8,-1.3,2.8,-4.3c0,-6.2,.6,-13.9,-.3,-19.8c-4.5,1.5,-3.5,5.1,-3.4,10.9c0,4.3,-1,10.4,.9,13.2ZM822.6,99.2c5.1,-1.4,3.8,-5,3.9,-10.6c.1,-4.1,.5,-10.5,-.8,-13.5c-1.8,.5,-2.5,.8,-3,3.1Zm46.3,100.9c3,-2.9,-1.5,-3,-3.1,-3c0,1.9,.2,5.8,3.1,3Zm26.3,-58.3c3.8,.1,3.1,.9,3.6,-2.3c-1.7,-1.7,-.2,-1.2,-3.7,-1.1ZM866.5,130.1c1.5,1.4,2.4,0,2.5,-.1c1.1,-4.1,1,-2.9,-3.2,-3.1c.1,1.9,-.6,1.8,.7,3.2ZM920.1,160c8.6,-3.5,-6.5,-6.6,0,0Zm-22.6,-6.2c1.9,-.6,.3,.3,1.3,-1.6c-.3,-.5,.8,-3,-2.6,-1.6c-1.8,.8,-1,1.5,-.8,2.9c.8,.2,-1.4,1.3,2.1,.3Zm-6.4,6.2c2.6,-1.2,1.9,.6,1.7,-3.7l-3.2,.1c-.5,3.6,-.3,2.7,1.5,3.6Zm-.8,11.2c4.2,-.8,2.2,1.2,2.7,-3.3c-1,-.2,-1.8,-.9,-3,.2c-2,2.1,.2,3,.3,3.1ZM860,187.6c.3,2.5,3.7,2.4,3.7,-.8c0,-1.8,-4,-1.8,-3.7,.8Zm11.2,12c2,1.4,.4,.9,3.8,1v-3.5c-4,.1,-2.6,-.5,-3.8,2.5Zm19.1,-63.5l2.5,-.1c.2,-3.8,1.1,-2.9,-2.4,-3.7c-1.5,2.1,-1.5,1.5,-.1,3.8Zm-39.1,59c1,-4.1,1.1,-3.6,-3.1,-3.6c.2,4,-.5,2.9,3.1,3.6Zm12,7.7c-4,.4,-2.3,-1.3,-3.1,2.6c.1,0,.9,2.4,3.1,.3c1,-1,.2,-2.1,0,-2.9ZM848.3,169.1c-.8,4.1,-.5,-.1,.9,2.1l1.6,-.1c.1,-.1,2,.6,.6,-2.6c-.7,-1.5,.2,-.9,-1.5,-.9c-1.4,0,-1.3,.2,-1.6,1.5Zm26.5,20c.3,-5.1,.5,-2.3,-1.4,-3.6c-1.6,.7,-3.1,-.6,-1.6,2.7c.6,1.4,1.6,.9,3,.9Zm-14.5,5.2c2.4,2.5,3.2,-.1,3.3,-2.6c-2,-.2,-5.7,-.1,-3.3,2.6Zm20.5,-34.4c-.2,-4.2,.6,-4.1,-3.7,-3.4c1.6,3.3,-1.4,2.7,3.7,3.4Zm-2.9,35c3.5,-.4,2.6,.9,3,-3.4c-3.9,0,-4.3,-.5,-3,3.4ZM851.1,130.6c1.2,-3.9,1.2,-3.5,-3.1,-3.6c.5,4,-.2,3,3.1,3.6Zm23.9,2c-5,0,-2.5,-.3,-3.4,1.9c1.2,1.1,-2.1,1.4,3.4,1.6Zm26.1,36.1c-1.6,2.8,.5,2.2,.5,2.4l2.4,.1v-3.6c-1.7,.1,-2.1,-.3,-2.9,1.1ZM878.4,162c-2.8,1.2,-1.4,2.8,1.4,3.4c.1,-.1,2.1,.5,.7,-2.6c-.4,-.9,-.5,-1.4,-2.1,-.8Zm-30.7,37.7c2.7,1.2,2.2,1.4,4.2,-.4c-1.3,-3,.6,-.8,-1.9,-2.4c-2.4,1.1,-1.2,-.6,-2.3,2.8Zm13.6,-16.3c9,-2.9,-6.5,-6,0,0Zm-12.9,43.8c-1.6,3.3,.8,2.7,.8,2.7c3,-.7,1.5,.7,2.2,-1.4c.7,-1.8,-1.9,-3.4,-3,-1.3Zm55.8,-88.9c-3.3,.3,-3.1,-.2,-3.3,3.4l3.3,.2Zm-24.4,32.9c.6,-.9,1.6,.8,.6,-3.5c-1.6,0,-2.9,-.3,-3,1.5c-.2,3.1,-.1,1.4,2.4,2Zm-21.6,38.7c-2.1,-1.2,-1,-.9,-3.3,-1.5c-1.7,4.2,.7,4.2,1,4.5Zm46.1,-44.5c-.2,-4.2,.9,-3.7,-3.2,-3.2c-.3,3.9,-.4,2.9,3.2,3.2ZM898,130.1c.7,-.4,2.6,-3.6,-2.9,-3l.4,3c.2,0,.4,1.2,2.5,0Zm6.4,21.3c-.9,-.5,.5,-1.7,-3.3,-.5c-.8,1.3,-.6,2.9,1.3,3c2.8,.1,1.5,-.2,2,-2.5ZM860.3,139c-1.1,1.1,-.2,3.2,3.3,2.5l-.3,-2.6c-.1,0,-.5,-2.3,-3,.1Zm43.8,-14.3l.3,-3.6c-2.2,.3,-3.6,-.5,-3.5,1.9c.1,1.9,1.5,1.6,3.2,1.7Zm-29.3,37.4c-3.1,-.1,-1.7,-.4,-3.5,.8c.7,2.6,-.9,2.8,3.4,2.5Zm9.1,-31.6c4.4,-.2,5.6,-3.1,-.4,-3.6Zm-20.5,84.6l-3.4,.2c.1,1.3,-.4,2,.8,2.8c1.9,1.3,2.5,-.2,2.8,-.2Zm-5.5,-34.7c-2.5,-1.1,.2,-.4,-3.1,-.9c-.7,2.2,-.8,1.7,.2,3.9c2.8,-.7,2.5,-.4,2.9,-3ZM851,212.7c.9,-2.8,1.1,-1.2,-.1,-3.3c0,-.1,-.3,-3.1,-3.1,1.6c2,2,.4,1,3.2,1.7Zm23.2,-17.8c1,-1.9,.7,-.5,.8,-3.5l-3.4,.1c-.1,3.7,-.1,3,2.6,3.4Zm-4.9,-38.6c-4.1,0,-2.2,.1,-3.3,1c-.8,2.3,3.5,5.3,3.3,-1Zm11.6,-3.7c.8,-1.8,-.7,-2,-1.7,-2.5c-2.8,1.6,-.8,-.1,-2,2.1c1,1.1,2.3,3.5,3.7,.4ZM863.4,135.9c.2,-3.6,.5,-1.8,-1,-3.3c-3.2,0,-4.6,3.8,1,3.3Zm22.1,24c2.1,-1.9,3.4,-3.7,-.8,-3.7c-1.3,0,-2.3,2.7,.8,3.7Zm22.7,-3.4c-.3,-.1,-1.4,.2,-1.8,.3c1.3,4,-1.4,2.6,3.6,3l.1,-2.8c-.7,-.3,-.6,-.4,-1.9,-.5Zm-12.9,-.1c-.5,5.3,3.6,4.7,3.4,.1Zm-21.4,-8.6c1.9,-.9,1,-1.7,.7,-3.2c-2.4,-.5,-1.5,-.7,-3.4,1.3c0,0,.7,2.8,2.7,1.9Zm24.8,-.4c-.4,-4.9,-3.3,-5.1,-3.6,0ZM863.6,157c-2.4,-1.4,-1.9,-1.1,-3.7,.1c1.3,5.1,2.3,2.1,3.6,1.9Zm45.3,-24.6c-3.8,1.3,-3.8,4.6,1.1,3.2c.2,-2.8,.5,-1.8,-1.1,-3.2ZM877.2,186c.7,2.5,-.7,3,3.4,3.1l.2,-3.6Zm-2.4,-29.5c-3.1,-.2,-1.7,-.5,-3.6,.7c.6,2.4,.7,2.8,3.5,2.6Zm-5.3,8.8c-.4,-4.9,-3.3,-4.9,-3.7,.1Zm-8.2,-11.2c2.3,-.9,1.6,.5,2.3,-2.7c-1.4,-1,-1.9,-1.9,-3.3,-.3c-1.4,1.5,.9,2.9,1,3Zm7.2,16.7c.3,-.5,1.8,1.1,.3,-2.7c-1.1,-.3,-3.3,-.7,-3,1.7c.3,2.4,1.4,1.5,2.7,1Zm45.2,-43.7c-.3,.7,-2.1,3.4,.8,3.4c2.2,0,1.8,-1.2,1.9,-3.4ZM890.3,127c0,0,-3.8,4.3,2.1,3.2c.6,-2.1,1.6,-2.8,-2.1,-3.2Zm-29.8,.3c-1,1,-1.2,4.1,2.6,2.7c1.1,-3.6,-1.4,-3.8,-2.6,-2.7Zm8.5,11.6c-2.3,-.8,-2.6,-1.5,-3.2,2c.1,0,.9,2.3,3,.4c1.1,-.9,.3,-1.9,.2,-2.4Zm-9,30.9c.5,3,4.4,1.2,3,-1.6c0,0,.4,-1.6,-2.2,-.3c-.8,.5,-1,.8,-.8,1.9Zm8.9,-45.6c1.2,-3.7,0,-2,-.4,-2.7c-1.2,-.4,-3.1,-.6,-2.7,1.5c.4,2.7,1.9,1.6,3.1,1.2Zm29.7,11.4c.3,-4.3,-3.7,-5,-3.3,.5Zm-35.4,26.7c-8.9,-1.1,1.9,7.9,0,0ZM904.3,157c-.5,-.2,-.6,-.4,-1.9,-.6l-1.2,.2c-1.2,3.1,.6,2.9,3.1,3.3Zm-29.6,10.8c-3.2,-.2,-2.3,-.7,-3.3,2.1c1.5,1.8,-.1,1.4,3.3,1.2Zm20.8,-5.5c-2.1,7.8,8.9,-.7,0,0ZM879,148.1c1.9,-1.5,1.1,.4,2.3,-2.4c-2,-2.3,.1,-.5,-2.4,-1.7l-1.6,1.8c1,2.3,-.7,.2,1.7,2.3ZM867.2,114.8c-1.8,1.5,-1.4,-.1,-1.2,3.5c4.8,.1,4.6,-2.6,1.2,-3.5Zm25,61.9c.5,-.9,1.9,1.8,.4,-2.4c-.4,-.9,-1.2,-.8,-1.5,-.9c-1.8,.9,-2.6,.7,-.8,3.7ZM884,189.1c2.7,-.1,2.7,-.5,3.4,-3.3l-3.9,-.1Zm-24,11.3h3.5c0,-3.5,.6,-1.8,-1.4,-3.4c-1.9,.5,-2.1,.7,-2.1,3.4Zm44.2,-69.8l.1,-3.7c-5.4,.5,-4.7,3,-.1,3.7Zm-29.4,-1.8c.2,-3.5,.2,-.1,-.6,-1.8h-2.7c.1,3.6,-.1,3,2.7,3.4c.6,-1.1,.4,.9,.6,-1.6Zm-3.7,12.4l3.8,.5v-3.2c-3.4,-.1,-2.7,-.6,-3.8,2.7Zm24.4,29.9c5.4,.5,3.9,-4.2,.3,-3c-.3,.5,-.3,-.3,-.5,1.7c-.3,2.1,0,.2,.2,1.3Zm-32,3c-8.3,-2,-.2,8.1,0,0Zm50,-49.3c2.6,-.8,1.6,.1,3.2,-2.4c-1.8,-1.7,-1.2,-1.5,-4.1,-.9Zm-47.3,61.3c-1.2,1.3,-.5,3.6,2.7,2.6c1,-3.4,-1.3,-4,-2.7,-2.6ZM854.8,189c3.2,-.1,2,.5,3.2,-2.2c-.4,-.3,-1.7,-2.2,-3.1,-.8c-1.2,1.2,-.8,1,-.1,3Zm13.9,-12.4c0,0,2.1,-.3,0,-2.7c-.7,-.8,-1.2,-.3,-1.8,-.2c-.7,.9,-1.4,-.5,-.7,3.3Zm30.1,-1c-1,-2.4,0,-1.8,-2.7,-2.2c-1.4,1.9,-1.2,.8,-.5,3.4c2.7,.2,1.6,.5,3.2,-1.2Zm-8.5,-28.2c.1,.1,.4,2.7,2.9,-1.4c-1.3,-1.6,-.7,-1.8,-3.4,-1.6c-.5,3.5,-.7,1.1,.5,3Zm-38.4,10.1c-1.7,-1.5,.7,-.8,-1.9,-1.1c-1.8,-.2,-2.7,.5,-1.7,2.3c1.1,1.9,.4,.5,1.9,1.4Zm17.5,48.6c-.3,-4.2,-2.6,-5.3,-3.6,-.7c.8,.4,.6,.5,2,.8c.8,.3,.6,0,1.6,-.1Zm1.7,-.5l3.8,.6V203c-3.4,-.1,-2.7,-.4,-3.8,2.6Zm-2,-69.7c.6,-5.2,-3.5,-4.6,-3.2,-.2ZM887,163.6c-.2,-1.7,-.1,-1.1,-2.3,-1.7c-1.1,1.8,-1.7,1.4,0,3.6c1,-.6,2.7,1.3,2.3,-1.9ZM893.3,141c-.9,-3,0,-2.8,-3.7,-2.4l.2,3.3Zm16.4,26.5c-2.6,.5,-2.1,.2,-3.2,2.4c3,2.8,4.1,1.4,3.2,-2.4ZM909.6,121c-2.7,.2,-1.5,-.4,-3.1,1.4c1.1,2.5,-.1,1.8,3.5,2.4Zm-10.8,-3.6c-.7,-2.3,-.3,-1.9,-2.5,-2.6c-1.7,1.7,-1.4,.5,-.7,3.1c2.6,.9,1.3,1,3.2,-.5Zm-51.1,18.1l3.6,.3c.1,-2.1,0,-2.2,-.8,-3.4c-3,.7,-2.2,-.1,-2.8,3.1ZM896,183.4c2.9,-1.1,2.2,.5,2.9,-3.1l-3.2,-.2c-.1,.2,-1.5,.3,.3,3.3Zm14,-64.6c.7,-3.9,-.2,-3.2,-1.1,-3.9c-1.7,.2,-1.9,1.1,-2.6,2.2Zm-32.9,16c1.1,1,1.3,1.1,3.5,1.2c.3,-4.6,0,-2.2,-.8,-3.3c-2.2,-.4,-1.8,.8,-2.7,2.1ZM894.2,365c2,-.2,3.1,.8,3.1,-1.8c-.1,-2,-1.1,-1.5,-3,-1.6ZM871.3,116.8c1.6,2,.2,.8,2.7,2.1c2.3,-3.7,.4,-5.6,-2.7,-2.1Zm-4.2,27.6c-1.4,.4,-1.1,-.3,-1.4,2.8l3.7,.1l-.5,-2.6c-.9,-.3,1.5,-1.2,-1.8,-.3Zm7.8,32.5l-.4,-3.3c-2.9,0,-2.1,.1,-3.2,2c1.5,1.6,.5,1.3,3.6,1.3ZM858,175.6c-1.5,-2.4,.1,-1,-2.4,-2.2c-1.4,1.3,-1.6,.8,-.9,2.9c.2,.1,-.3,2.7,3.3,-.7Zm46.1,-31.4c-2.7,.4,-2.4,.1,-3.4,2.4c2.2,1.4,.5,.8,3.6,1.1Zm-49.2,80.3c4.1,-1.2,4.8,-3.4,-.5,-3.8Zm8.7,-14.3c-2,-2.2,-2.4,-2.6,-3.6,.8c1.6,1.8,2.4,2.5,3.6,-.8Zm23.3,-68.6c.1,-3,.4,-2.4,-2.2,-3.3c-1.3,1.8,-.9,2.4,-.8,3.6Zm17.4,-6.3c-.3,-3,-.1,-1.6,-1.1,-2.9c-3.5,1.1,-1.4,0,-2.2,1.5c-1.4,2.5,.1,1.8,.2,1.8Zm-19.6,56.1c-.6,.9,-.5,.3,-.9,1.9c0,.1,0,1.4,0,1.7c3.6,-.3,5.6,-2.7,.9,-3.6Zm2,-55.7c0,-.1,1.8,.9,-.1,-2.2c-.4,-.7,-1.3,-.8,-2.3,-1.1l-.5,3.8Zm-32.3,.2l3.1,-.3c.4,-3,.5,-2.2,-1.9,-3.2c-1.7,1.6,-1.1,.2,-1.2,3.5Zm0,64.5l3.2,-.4c.2,-2.9,.4,-2.1,-2,-3.1c-1.7,1.7,-1.1,0,-1.2,3.5Zm-3.5,-11.2c1.1,-2.5,.9,-1.7,-.3,-3.7l-2.8,1.3c1.1,2.5,0,1.9,3.1,2.4Zm28.9,-50.9c-2.1,.7,-1.4,-.9,-2.6,3l3.5,.6c0,-3.2,.6,-1.4,-.9,-3.6Zm-10.4,73.6c-.5,-3.5,-1.7,-4.1,-3.6,-1.7c.9,1.1,-.4,3,3.6,1.7ZM862.1,148c2.2,-1.9,.6,.2,1.6,-2.4l-2.4,-1.5c-2,2.1,-2.1,2.6,.8,3.9Zm28.2,-23.4c4.4,-.8,4.2,-3.3,-.8,-3.4Zm5.4,-.4c2.7,.9,2.6,1,3.2,-2.5l-3.3,-.5ZM840.6,458.4c.3,-1.1,1.3,-1.5,-.5,-2.4c-2.5,-1.2,-2.4,.5,-2.4,.6c.9,4.7,2.9,1.8,2.9,1.8ZM863.7,121.5c-2.9,-.7,-1.9,-.9,-3.9,1l1.5,2.2q1.9,-.8,2.4,-3.2Zm42.8,41.2c.5,2.4,.5,2.5,3.2,3L910,162Zm-19.4,8.2c-.5,-2.7,-.2,-2.4,-2.4,-3.3c-1,1.3,-.5,-1.4,-.9,1.6c-.2,2,.2,1.1,.7,2.1Zm-31.1,24c-.4,-.5,-.4,1,.8,-.4c1,-1.1,.6,-.4,1,-2c-3.2,-2.7,-5.4,.4,-1.8,2.4Zm1.9,-24.3c-.6,-2.3,-.9,-2.4,-3.2,-3.1l-.3,2.4c0,.2,.4,1.1,.6,1.5Zm57.9,-14.1c-1.9,-.1,-1.9,0,-3.1,1.1c.2,.3,1,1.8,2.4,2.3c3.1,-3.1,.7,-3.3,.7,-3.4Zm-35,-29.6l-3.4,.3c.3,2.8,0,2.4,2.8,3.3Zm-6.3,-5.6c-2.2,-.2,-1.7,-.4,-3.2,1.1c1.3,2.2,1,2.3,3.5,1.9Zm15.8,32.6c3.2,-.8,1.9,.9,2.8,-2.9l-2.8,-.4c-1.2,2.2,-1.1,1.1,0,3.3ZM850,165.5c2,-1.5,1.8,-.8,1,-3.3h-2.2c-1.4,3.3,-.9,2.2,1.2,3.3Zm-2.3,10.9l3.4,.2c.1,-.4,1.4,.1,-.3,-3.2c-2.4,.7,-2.1,.4,-3.1,3Zm44.5,12.3c.3,-.8,1.1,-.9,-.3,-3.1c-3.1,.8,-2.5,-.8,-2.1,3.5ZM865.8,151.4c.9,5,3.8,3.4,3.3,-.6ZM854.7,124.8c3.2,-.6,2,.2,3.4,-2.8l-3.3,-1ZM904,496.1c2.6,2.6,2.5,-.9,2.5,-2.7c-1.4,.2,-4.7,.5,-2.5,2.7ZM885.7,418.3c-2.6,1.1,-1.5,2.5,1.4,3c0,-.1,1.6,.1,.5,-2.3c-.4,-.8,-1,-1.1,-1.9,-.7ZM855.6,160c1.9,-1.7,1.4,1.2,2.2,-3.2l-3.4,-.2c.1,3.2,-.4,1.7,1.2,3.4Zm-5.4,23.5l1.7,-2.3L850,179.4l-2.3,1.9Zm15.6,9c.7,3.1,.4,2.6,3.2,2l-.5,-3c-3,.2,-1.3,-.1,-2.7,1Zm53.4,-67.7c2.4,-.6,2.7,-.7,3.2,-3.1l-3.1,-.7ZM887.6,486.9c.3,-3.4,.2,-2.9,-3.2,-2.6c.7,3.2,-.2,2.8,3.2,2.6ZM854.9,165.6c2.5,-.5,2.5,-.3,2.9,-3l-3.3,-.4Zm48.6,235.3c.1,1.7,1.1,1.5,2.9,1.5l.1,-3c-2,0,-3.1,-.8,-3,1.5Zm-24.9,46.8c-1.6,-1.8,-1,-1.5,-3.4,-.6c.8,2.7,-1,.8,1.5,2.7c2.8,-1.4,1.3,-.1,1.9,-2.1Zm6.2,46.1c-.1,4.7,3,4,3,-.2ZM850.9,224.5l.3,-3.7l-3.4,.8c1.7,2.5,-1,1.8,3.1,2.9Zm58.8,-94c.9,-3.8,-1.6,-5.3,-3.2,-1.4ZM859.1,487.3c.6,-3.3,-.4,-5.5,-2.8,-1.7c1.2,2.1,-1.1,1,2.8,1.7Zm7.8,-18.8c1.3,-.5,2.5,0,2.1,-2.1c-.3,-1.3,-1,-1.3,-2.4,-1.3c-.9,2.7,-1.2,1.2,.3,3.4Zm30.2,-69.4c-4,.6,-1.5,-.4,-3.2,1.4c1.4,1.9,-.4,1.3,2.9,2.2ZM855.6,218.6c1.5,-2.1,2.3,0,1.9,-3c-1,-.5,-1,-.9,-2.9,.2c-.4,2.5,-.5,1.3,1,2.8ZM831,474.8c-3.2,-.4,-2.2,-.6,-2.9,2.3l3.1,.7Zm74.5,12.1c2.1,-.4,.3,.2,1.3,-1.3c-.5,-.7,.3,-2.3,-2.4,-1.3c-1.9,.7,-.6,1.8,-.5,2.1c1.3,.7,-1.8,1,1.6,.5ZM868.9,458.5c.2,-3.4,-.2,-2.2,-2,-2.7c-1.5,2,-.8,.4,-.7,3.3ZM914,118.8c1.1,-.9,1.8,-1.2,2.7,-2.1l-2.8,-2c-.9,1.8,-.9,2.5,.1,4.1ZM830.8,484.4c-2.6,-.4,-1.5,-.7,-2.7,1.2c1.2,2.3,-.8,1.1,3.1,1.8Zm-12.3,1.2c2.3,4,2.9,1.2,2.9,1.2l-.2,-2.4c-2.7,-.3,-1.5,-.6,-2.7,1.2Zm87.7,-95.7c-3.3,.4,-4.6,3,.4,3.1Zm-40.3,58.8c2.2,.8,1.1,1.2,3.1,-.2c-.7,-3.5,-2.9,-2.8,-3.1,.2Zm-25.2,28.4c.1,-2.3,-.1,-2.4,-2.6,-2.5l-.1,3ZM874.3,183.5l.4,-3.6l-3.4,1.3c1.4,2.1,-.1,.9,3,2.3ZM896,449.7c1.8,-1.8,.4,0,1.3,-2l-1.6,-1.5l-2.1,1.9Zm-38.5,6.5c-2.8,-.1,.6,-.3,-1,.4c.4,3.2,-.6,1.8,2.8,2.7c.1,-.9,.1,-1,0,-1.8c0,-.1,-.2,-.2,-.2,-.5Zm-16.8,38c-.5,-.2,-.6,-.4,-1.8,-.4c-3.3,.1,.6,-.5,-1.1,.7l.4,2c2.5,-.1,2.6,-.3,2.5,-2.3ZM869,420.8c-.3,-1.9,-.2,-1.8,-1.8,-2.4c-1.5,1.3,-.7,-1.1,-.9,2.8Zm35.5,-75c1.9,-.1,1.8,-.1,2.3,-1.7c-1.8,-1.4,.2,-.6,-2.9,-.9Zm-423.1,241c4.2,-1.3,23.2,-21.8,27.2,-25.9c4.5,-4.4,24.4,-23.3,25.3,-27.6l-52.8,.3c-.8,5.3,-.9,49.1,.3,53.2ZM584.6,348.4c3.1,-.9,3.1,-1.4,5.1,-3.5l42.7,-42.8c3.4,-3.4,13.9,-10.7,14.4,-15.8c-2.9,-1.2,-3,-.8,-4.9,1.1l-44.3,43.7c-7.2,7.2,-14.2,11.7,-13,17.3Z" class="g2_9" />
</g>
<image preserveAspectRatio="none" x="27" y="28" width="1046" height="640" xlink:href="img/1.png" />
<path fill-rule="evenodd" d="M656.1,234c.9,.6,1.7,1.2,2.5,1.9c.4,-.4,.8,-.7,1.2,-1.1c2.2,-1.9,5,-2.8,7.9,-2.8c2.2,0,4.5,.5,6.4,1.6c2.1,1.2,3.7,2.9,4.7,5.1c.8,2.1,.3,4.5,-1.3,6c1.3,1.7,1.9,3.7,1.9,5.9c0,3.1,-1.2,5.9,-3.6,8c-2.3,2,-5.1,2.8,-8.1,2.8c-2.3,0,-4.6,-.4,-6.6,-1.5c-1.1,-.6,-2,-1.3,-2.8,-2.1c-1.2,1,-2.5,1.9,-4,2.5c-1.8,.7,-3.7,1.1,-5.6,1.1c-2,0,-3.9,-.3,-5.7,-1.1c-1.6,-.6,-3,-1.5,-4.2,-2.6c-.3,.3,-.6,.6,-.9,.9c-2.3,2,-5.1,2.8,-8.1,2.8c-2.3,0,-4.6,-.4,-6.6,-1.5c-.8,-.4,-1.5,-.9,-2.1,-1.4c-.5,.3,-1,.7,-1.5,1c-2.3,1.3,-4.8,1.9,-7.4,1.9c-3.1,0,-5.9,-.8,-8.3,-2.5c-.1,.2,-.3,.3,-.5,.4c-1.3,.7,-2.7,1.3,-4.1,1.6c-1.5,.4,-3,.5,-4.4,.5c-4,0,-7.6,-1.3,-10.4,-4.2c-.1,-.1,-.3,-.3,-.4,-.5c-.1,.2,-.3,.3,-.4,.4c-1.4,1.4,-3,2.4,-4.7,3.2c-1.8,.7,-3.7,1.1,-5.7,1.1c-1.9,0,-3.8,-.3,-5.7,-1.1c-1.8,-.7,-3.4,-1.8,-4.8,-3.2c-1.1,-1.2,-2.1,-2.5,-2.9,-4.1v2.4c0,2.9,-2.3,5.3,-5.3,5.3h-2.9c-1.8,0,-3.4,-.9,-4.4,-2.3c-2.4,2.1,-5.4,3,-8.6,3c-.3,0,-.7,0,-1,0v2.4c0,3,-2.4,5.4,-5.3,5.4h-3c-2.9,0,-5.3,-2.4,-5.3,-5.4V238c0,-2.9,2.4,-5.3,5.3,-5.3h2.8c.6,0,1.2,.1,1.7,.2c1.5,-.6,3.1,-.9,4.7,-.9c3.2,0,6.2,1,8.6,3.1c1,-1.5,2.6,-2.4,4.5,-2.4h2.6c.5,0,1.1,.1,1.6,.2c1.3,-.6,2.7,-.8,4.2,-.8c.7,0,1.4,0,2,.2c.6,.1,1.2,.2,1.7,.4c.9,.3,1.6,.7,2.1,1.3c.6,-.3,1.2,-.6,1.8,-.9c1.8,-.7,3.7,-1.1,5.6,-1.1c2,0,3.9,.4,5.6,1.2c1.8,.7,3.4,1.8,4.8,3.1c.2,.2,.3,.3,.5,.5c.1,-.2,.3,-.3,.4,-.5C587.4,233.5,591,232,595,232c1.3,0,2.6,.2,3.9,.5c1.3,.3,2.6,.7,3.8,1.3c.4,.2,.8,.4,1.1,.7c2.4,-1.7,5.2,-2.5,8.2,-2.5c3.5,0,6.7,1.1,9.2,3.4c.2,-.2,.4,-.4,.7,-.6c2.2,-1.9,4.9,-2.8,7.9,-2.8c.4,0,.8,.1,1.2,.1c-1.2,-.6,-2.3,-1.3,-3.4,-2.2c-5.1,-4,-7.5,-9.6,-7.7,-16c-.1,-1.5,.4,-2.8,1.5,-3.9c1,-1.1,2.3,-1.6,3.8,-1.6h.2c-1.7,-2,-3,-4.1,-4,-6.4c-1.5,3.4,-3.5,6.3,-6.2,8.9c-2.6,2.6,-5.7,4.7,-9.1,6.1c-3.4,1.5,-7,2.2,-10.8,2.2c-3.7,0,-7.3,-.7,-10.8,-2.2c-3.4,-1.4,-6.5,-3.4,-9.2,-6.1c-1.3,-1.3,-2.4,-2.7,-3.5,-4.2v5.6c0,2.9,-2.4,5.3,-5.3,5.3H537.7c-2.9,0,-5.3,-2.4,-5.3,-5.3V180.1c-.2,.2,-.5,.3,-.8,.4c-1.4,.7,-2.8,.8,-4.3,.2c-.4,-.2,-.7,-.3,-1.1,-.4c-.2,0,-.4,-.1,-.6,-.1c-1.3,0,-2,.4,-2.6,1.5c-1.5,2.5,-1.7,6.9,-1.7,9.7V212c0,2.9,-2.4,5.3,-5.3,5.3h-6c-3,0,-5.4,-2.4,-5.4,-5.3v-4.1c-2.2,2.9,-4.9,5.4,-8.2,7.3c-4.4,2.5,-9.4,3.6,-14.5,3.6c-7.6,0,-14.6,-2.4,-19.9,-8c-5.5,-5.6,-7.7,-12.8,-7.7,-20.5c0,-4.2,.7,-8.3,2.3,-12c-.9,.7,-2,1.1,-3.2,1.1h-3.9V212c0,2.9,-2.4,5.3,-5.3,5.3H438c-2.9,0,-5.3,-2.4,-5.3,-5.3V179.4h-1.5c-.7,0,-1.3,-.1,-1.9,-.4v32.7c0,2.9,-2.4,5.3,-5.3,5.3h-7.2c-1.5,0,-2.8,-.5,-3.7,-1.5c-.1,.1,-.2,.1,-.3,.2c-3.6,2.1,-7.6,3.1,-11.8,3.1c-7.3,0,-13.9,-2.5,-18.9,-7.9c-2.3,-2.5,-4,-5.3,-5.1,-8.3v11.6c0,2.2,-1.3,4.1,-3.4,5c-2.1,.8,-4.3,.3,-5.9,-1.4L335.6,183.1V212c0,2.9,-2.4,5.3,-5.3,5.3h-6.4c-3,0,-5.4,-2.4,-5.4,-5.3V153.2c0,-2.3,1.3,-4.2,3.4,-5c2.1,-.8,4.4,-.3,5.9,1.4l32.1,35.1V155.4c0,-2.9,2.4,-5.3,5.3,-5.3h6.4c3,0,5.4,2.4,5.4,5.3v23.5c1.1,-2.9,2.7,-5.6,4.9,-8c4.9,-5.5,11.5,-7.9,18.8,-7.9c4.2,0,8.4,.9,12.1,3.1c1,-1,2.3,-1.6,3.8,-1.6H424c1.1,0,2.3,.4,3.1,1.1c1,-1.1,2.5,-1.9,4.1,-1.9h1.5c.2,-4.2,.8,-9.1,3.2,-12.3c2.9,-4,7.6,-5.4,12.3,-5.4c1.2,0,2.3,.1,3.5,.3c1.2,.2,2.3,.5,3.5,.8c2.1,.8,3.5,2.8,3.5,5.1v6.2c0,2,-.9,3.7,-2.6,4.6c-.7,.5,-1.5,.7,-2.3,.8c2.8,.2,4.9,2.5,4.9,5.3v5c0,0,0,.1,0,.1c.9,-1.4,2,-2.7,3.2,-3.9c5.3,-5.5,12,-8,19.6,-8c7.4,0,14.1,2.2,19.2,7.7c1.6,1.7,2.9,3.6,3.9,5.5v-5.7c0,-2.9,2.4,-5.3,5.4,-5.3h5.4c1.2,0,2.3,.4,3.2,1c2.5,-1.6,5.5,-2.5,8.6,-2.5c1.1,0,2.2,.1,3.2,.4c.7,.1,1.4,.3,2,.5v-9.6c0,-2.9,2.4,-5.3,5.3,-5.3h6.9c3,0,5.3,2.4,5.3,5.3v46.1h16.6c.9,0,1.6,.2,2.3,.6c-1.1,-3.2,-1.7,-6.5,-1.7,-9.9c0,-3.7,.7,-7.3,2.1,-10.8c1.4,-3.4,3.5,-6.4,6.2,-9.1c2.6,-2.6,5.7,-4.6,9.1,-6c3.5,-1.4,7.1,-2.1,10.8,-2.1c3.8,0,7.4,.7,10.8,2.1c3.4,1.5,6.5,3.5,9.1,6.1c2.2,2.2,4,4.6,5.4,7.3c1.1,-3.2,2.8,-6.1,5.2,-8.7c4.9,-5.2,11.4,-7.5,18.6,-7.5c4.2,0,8.3,.9,12,3c.9,-1,2.2,-1.6,3.7,-1.6h7.3c2.6,0,4.8,2,5.2,4.5c.5,-1.2,1.4,-2.2,2.6,-2.8c-.5,-.3,-1,-.8,-1.5,-1.2c-2.1,-2.1,-3.1,-4.7,-3.1,-7.6c0,-2.8,1,-5.4,3.1,-7.5c2,-2,4.6,-3.1,7.5,-3.1c2.9,0,5.5,1.1,7.5,3.2c2,2,3.1,4.6,3.1,7.5c0,2.8,-1.1,5.4,-3.1,7.4c-.5,.5,-1,.9,-1.5,1.3c1.7,.9,3,2.7,3,4.8v1.4c.7,-1.3,1.6,-2.5,2.7,-3.6c3.6,-3.6,8.1,-5.2,13,-5.2c4,0,7.7,.9,11,3.1c.7,.4,1.3,.9,1.9,1.4c.6,-2.3,2.7,-3.9,5.1,-3.9h1.3v-9.3c0,-2.9,2.4,-5.3,5.4,-5.3h6.3c2.9,0,5.3,2.4,5.3,5.3v9.3h1.3c2,0,3.7,1,4.6,2.6c.3,-.2,.6,-.4,1,-.6c-.5,-.3,-1,-.8,-1.5,-1.2c-2.1,-2.1,-3.1,-4.7,-3.1,-7.6c0,-2.8,1,-5.4,3.1,-7.5c2,-2,4.6,-3.1,7.5,-3.1c2.9,0,5.5,1.1,7.5,3.2c2,2,3.1,4.6,3.1,7.5c0,2.8,-1.1,5.4,-3.1,7.4c-.5,.5,-1,.9,-1.5,1.3c1.7,.9,3,2.7,3,4.8v6.8c5,-9,14.9,-15,25.9,-15c8.7,0,16.9,3.7,22.6,10.2c.8,-1.7,1.9,-3.3,3.3,-4.7c3.6,-3.6,8.1,-5.2,13.1,-5.2c3.9,0,7.7,.9,11,3.1c3.3,2.1,5.6,5.2,6.9,8.9c.8,2.3,.1,4.7,-1.9,6.1l-5,3.7c-.4,.3,-.9,.5,-1.3,.7c2.1,1.2,4,2.6,5.4,4.4c2.5,3.2,3.5,7,3.5,11c0,5.1,-1.6,9.8,-5.2,13.5c-3.6,3.7,-8.2,5.4,-13.3,5.4c-4.1,0,-8,-.9,-11.5,-3.1c-2.5,-1.6,-4.5,-3.7,-6.1,-6.1c-5.6,5.8,-13.4,9,-21.5,9c-11,0,-20.9,-5.9,-25.9,-14.9v8.2c0,2.9,-2.4,5.3,-5.4,5.3h-7.2c-3,0,-5.3,-2.4,-5.3,-5.3V178.5c-.8,.5,-1.7,.7,-2.7,.7h-1.3v33.1c0,2.9,-2.4,5.3,-5.3,5.3h-6.3c-3,0,-5.4,-2.4,-5.4,-5.3V179.2h-1.3c-.1,0,-.2,0,-.4,0c-.3,.7,-.9,1.3,-1.5,1.8l-5.1,3.6c-.3,.3,-.7,.5,-1.1,.7c2,1.1,3.8,2.5,5.3,4.3c2.5,3.1,3.5,6.9,3.5,10.8c0,5.1,-1.6,9.8,-5.2,13.5c-3.6,3.6,-8.3,5.3,-13.4,5.3c-4,0,-8,-.9,-11.4,-3.1c-1.7,-1,-3.2,-2.3,-4.4,-3.8c0,2.9,-2.4,5.3,-5.4,5.3h-7.2c-2.3,0,-4.3,-1.4,-5,-3.5c-.2,2.2,-.5,4.5,-1.1,6.4c-.9,2.7,-2.4,5,-4.3,7.1c-2.7,2.7,-5.9,4.6,-9.4,5.9c-.6,.2,-1.2,.4,-1.7,.5Zm-16.2,.9c-.8,-.1,-1.6,-.3,-2.4,-.5c.5,.4,.9,.8,1.4,1.3c.3,-.3,.6,-.6,1,-.8ZM504.6,196.4c-.2,.1,-.4,.2,-.7,.3l.7,.4ZM452.8,163.7c-.7,0,-1.4,-.3,-2.1,-.7c-.3,-.2,-.6,-.3,-1,-.4c0,0,-.1,0,-.2,0c0,.3,-.1,.7,-.1,1.1ZM474,196.9c.4,.9,.9,1.8,1.7,2.6c1.8,1.9,4,2.6,6.6,2.6c1.9,0,3.5,-.5,5.1,-1.5c1.4,-.9,2.7,-2.3,3.7,-3.7Zm-62.6,-5.7c0,-2.8,-.6,-5.6,-2.5,-7.8c-1.8,-1.9,-4,-2.6,-6.6,-2.6c-2.4,0,-4.8,.5,-6.5,2.3c-1.9,2,-2.3,4.9,-2.3,7.5c0,2.7,.4,5.9,2.3,8c1.8,2,4.3,2.4,6.8,2.4c2.4,0,4.8,-.5,6.5,-2.3c1.9,-2,2.3,-4.9,2.3,-7.5Zm74.7,-10.9c-1.5,-.8,-3.3,-1,-5,-1c-1.6,0,-3,.3,-4.4,1Zm204.1,19.1l3.6,-2.8c.9,-.7,2,-1.1,3.1,-1.1c-2.7,-1.8,-5.1,-3.9,-6.7,-6.5ZM811.1,183.6l-3.9,2.4c-2.3,1.4,-5.3,.8,-7,-1.4l-.4,-.5c-2.3,-3.1,-6,-4.8,-9.8,-4.8c-6.3,0,-12.1,4.7,-12.1,11.3c0,6.5,5.8,11.2,12.1,11.2c3.9,0,7.7,-1.8,10,-5l.5,-.6c.8,-1.2,2,-2,3.5,-2.2c1.4,-.2,2.8,.1,4,1l5.3,3.9q.1,.1,.2,.2l3.3,-2.6c1,-.8,2.1,-1.2,3.3,-1.2c-4.3,-2.8,-7.9,-6.6,-9,-11.7Zm16.7,-3.8c.7,.7,2.9,1.7,3.7,1.9c.1,.1,.3,.2,.5,.2c-.1,0,-.1,-.1,-.1,-.2c-.3,-.8,-.8,-1.6,-1.5,-2.1c-.5,-.4,-1.1,-.5,-1.8,-.5c-.2,0,-.5,0,-.6,.1c-.2,.2,-.2,.4,-.2,.6Zm-3.2,18c.1,.2,.3,.4,.4,.7c.4,1,1.1,2.2,2,2.9c.7,.5,1.5,.7,2.3,.7c.4,0,1,0,1.3,-.3c.2,-.2,.2,-.6,.2,-.8c0,-.1,0,-.3,0,-.3c-.4,-.4,-1.8,-1,-2.4,-1.2q0,-.1,-.1,-.1l-.9,-.4c-.9,-.4,-1.9,-.8,-2.8,-1.2Zm-116.9,3.1c-.4,-.4,-1.7,-1,-2.3,-1.2h-.1l-.9,-.4c-.9,-.4,-1.9,-.8,-2.8,-1.2c.1,.2,.2,.3,.3,.5c.5,1.1,1.1,2.2,2.1,2.9c.7,.5,1.4,.7,2.3,.7c.4,0,1,0,1.3,-.3c.2,-.2,.1,-.5,.1,-.8c0,0,0,-.1,0,-.2Zm1.2,-18.7c-.3,-.8,-.8,-1.6,-1.5,-2.1c-.5,-.4,-1.1,-.5,-1.9,-.5c-.2,0,-.4,0,-.6,.1c-.1,.1,-.2,.3,-.2,.5c.8,.7,2.9,1.6,3.7,1.9c.2,0,.3,.1,.5,.1Zm-54.5,32.5c-3,1.3,-6.3,2,-9.7,2c-1.9,0,-3.8,-.2,-5.6,-.6c.2,.4,.5,.7,.9,1c1.6,1.2,4.3,1.4,6.2,1.4c1.7,0,3.7,-.2,5.4,-.9c.9,-.4,1.7,-1,2.3,-1.9q0,-.1,.1,-.2c.2,-.2,.3,-.5,.4,-.8Zm.6,-25c0,-2.7,-.6,-5.3,-2.5,-7.4c-1.8,-1.9,-4,-2.5,-6.5,-2.5c-2.4,0,-4.8,.5,-6.5,2.2c-1.8,1.9,-2.2,4.7,-2.2,7.2c0,2.7,.4,5.8,2.3,7.8c1.7,1.9,4.2,2.3,6.7,2.3c2.4,0,4.7,-.5,6.4,-2.2c1.8,-2,2.3,-4.8,2.3,-7.4Zm-69.6,1.5c0,2.9,.9,5.4,3,7.5c1.9,2.1,4.1,3,6.9,3c2.8,0,5,-.9,6.9,-2.9c2.1,-2.2,2.9,-4.7,2.9,-7.6c0,-3,-.8,-5.5,-2.9,-7.6c-1.9,-2.1,-4.1,-3,-6.9,-3c-2.8,0,-5,.9,-7,3c-2,2.1,-2.9,4.6,-2.9,7.6ZM598,246.5c-.2,-.1,-.4,-.2,-.5,-.3c-.4,-.2,-.7,-.4,-1.1,-.5c-.3,-.1,-.5,-.1,-.8,-.1c-.3,0,-.7,0,-.9,.2c-.2,.2,-.3,.8,-.3,1.1c0,.4,.1,.6,.3,.8c.2,.2,.3,.2,.6,.2c.3,0,.6,-.1,.8,-.2c.5,-.1,1,-.5,1.5,-.8c.1,-.1,.2,-.2,.4,-.2q0,-.1,0,-.1v-.1Zm-60.2,1.3c.1,.1,.3,.1,.4,.1c0,0,.1,0,.2,0c0,-.3,0,-.6,0,-.8c0,-.3,0,-1.1,-.2,-1.5c0,0,-.1,0,-.1,0c-.1,0,-.2,0,-.3,0c-.2,.3,-.2,.9,-.2,1.1c0,.3,0,.9,.2,1.1Zm34.5,-1.1c0,.4,.1,.7,.4,1c.2,.2,.3,.3,.6,.3c.3,0,.4,-.1,.6,-.3c.3,-.3,.3,-.5,.3,-1c0,-.4,0,-.6,-.3,-.9c-.2,-.2,-.3,-.3,-.6,-.3c-.3,0,-.4,.1,-.6,.3c-.3,.3,-.4,.5,-.4,.9Zm75.4,0c0,.4,0,.7,.3,1c.2,.2,.3,.3,.6,.3c.3,0,.4,-.1,.6,-.3c.3,-.3,.4,-.5,.4,-1c0,-.4,-.1,-.6,-.4,-.9c-.2,-.2,-.3,-.3,-.6,-.3c-.3,0,-.4,.1,-.6,.3c-.3,.3,-.3,.5,-.3,.9ZM823.8,235.9c.4,-.4,.7,-.7,1.2,-1.1c2.2,-1.9,4.9,-2.8,7.9,-2.8c2.2,0,4.4,.5,6.4,1.6c2.1,1.2,3.7,2.9,4.7,5.1c.8,2.1,.3,4.5,-1.3,6c1.3,1.7,1.9,3.7,1.9,5.9c0,3.1,-1.3,5.9,-3.6,8c-2.3,2,-5.1,2.8,-8.1,2.8c-2.3,0,-4.6,-.4,-6.6,-1.5c-1.1,-.6,-2,-1.3,-2.8,-2.1c-1.2,1,-2.5,1.9,-4,2.5c-1.8,.7,-3.7,1.1,-5.7,1.1c-1.9,0,-3.8,-.3,-5.6,-1.1c-1.1,-.4,-2.1,-1,-3,-1.6c-.2,.2,-.5,.4,-.8,.6c-1.3,.7,-2.7,1.3,-4.1,1.6c-1.5,.4,-3,.5,-4.5,.5c-3.4,0,-6.6,-1,-9.2,-3.2c-1,1.5,-2.6,2.5,-4.5,2.5h-3c-1.3,0,-2.4,-.5,-3.4,-1.2c-.9,.7,-2.1,1.2,-3.3,1.2h-3.1c-1.4,0,-2.8,-.6,-3.8,-1.6c-2.1,1.6,-4.7,2.3,-7.4,2.3c-2.3,0,-4.6,-.4,-6.7,-1.5c-.3,-.2,-.7,-.4,-1,-.6c-.9,.9,-2.2,1.4,-3.6,1.4h-3c-.5,0,-1,-.1,-1.4,-.2q0,.1,-.1,.2c-.5,1.5,-1.3,2.9,-2.4,4.1c-1.4,1.6,-3.1,2.7,-5,3.4c-1.9,.7,-3.9,1,-5.9,1c-3.4,0,-6.8,-.8,-9.5,-3c-2.3,-1.9,-3.6,-4.4,-4.1,-7.2c-.7,.5,-1.5,.9,-2.3,1.3c-1.8,.7,-3.7,1.1,-5.7,1.1c-1.9,0,-3.8,-.3,-5.6,-1.1c-1.5,-.6,-2.8,-1.4,-4,-2.4c-.9,1.7,-2.6,2.8,-4.6,2.8h-3.1c-2.9,0,-5.3,-2.4,-5.3,-5.3V226c0,-3,2.4,-5.4,5.3,-5.4h3.1c2.9,0,5.3,2.4,5.3,5.4v9c1,-.8,2.1,-1.4,3.3,-1.9c1.8,-.7,3.7,-1.1,5.6,-1.1c2,0,3.9,.4,5.7,1.2c1.8,.7,3.3,1.8,4.7,3.1c.1,.1,.2,.2,.3,.3c.1,-.1,.2,-.2,.3,-.3c2.6,-2.9,6.1,-4.3,9.9,-4.3c1.7,0,3.3,.3,4.8,.9c.5,-.1,1,-.2,1.6,-.2h2.9c.1,0,.3,0,.4,0q0,-.1,0,-.1l3.9,-6.6c1,-1.7,2.6,-2.7,4.6,-2.7h3.8c2.1,0,3.9,1.2,4.8,3.1c.9,1.9,.7,4,-.7,5.7l-.5,.6c1.3,-.4,2.7,-.7,4.1,-.7c2,0,4,.4,5.8,1.2c0,0,.1,0,.2,-.1V231c0,-2.9,2.4,-5.3,5.3,-5.3h3.1c.6,0,1.1,.1,1.6,.2c.4,-.5,.8,-1.1,1.3,-1.6c1.4,-1.4,3.3,-2.2,5.3,-2.2c2,0,3.9,.8,5.3,2.3c1.4,1.4,2.2,3.3,2.2,5.3c0,1.8,-.7,3.6,-1.9,4.9c.2,.2,.3,.5,.5,.7c2.6,-2.2,5.8,-3.3,9.3,-3.3c1.3,0,2.6,.2,3.9,.5c1.3,.3,2.6,.7,3.8,1.3c.6,.3,1,.6,1.5,1c.9,-.7,1.9,-1.2,3,-1.7c1.8,-.7,3.7,-1.1,5.6,-1.1c2,0,3.9,.4,5.7,1.2c1.6,.6,3,1.6,4.3,2.7Zm-24.7,10.7c-.2,-.1,-.4,-.2,-.6,-.4c-.4,-.2,-.7,-.4,-1.1,-.5c-.3,-.1,-.6,-.1,-.9,-.1c-.2,0,-.6,0,-.8,.2c-.3,.2,-.3,.8,-.3,1.1c0,.4,0,.6,.3,.8c.2,.2,.3,.2,.6,.2c.3,0,.6,-.1,.8,-.2c.5,-.1,1,-.5,1.5,-.8c.1,-.1,.3,-.2,.5,-.3Zm-92.6,.1c0,.4,0,.7,.3,1c.2,.2,.3,.3,.6,.3c.3,0,.4,-.1,.6,-.3c.3,-.3,.4,-.5,.4,-1c0,-.4,-.1,-.6,-.4,-.9c-.2,-.2,-.3,-.3,-.6,-.3c-.3,0,-.4,.1,-.6,.3c-.3,.3,-.3,.5,-.3,.9Zm22.7,-1.1c-.1,0,-.2,0,-.2,0c-.1,0,-.2,0,-.3,0c0,.3,-.1,.7,-.1,.9c0,.3,.1,.9,.2,1.2c.1,0,.2,0,.3,0q.1,0,.2,0c.1,-.2,.1,-.8,.1,-1c0,-.2,0,-.9,-.2,-1.1Zm83.7,1.1c0,.4,0,.7,.3,1c.2,.2,.3,.3,.6,.3c.3,0,.4,-.1,.6,-.3c.3,-.3,.4,-.5,.4,-1c0,-.4,-.1,-.6,-.4,-.9c-.2,-.2,-.3,-.3,-.6,-.3c-.3,0,-.4,.1,-.6,.3c-.3,.3,-.3,.5,-.3,.9ZM492.2,258.8c-.3,.2,-.7,.5,-1.1,.7c-2.3,1.3,-4.8,1.9,-7.4,1.9c-4,0,-7.6,-1.4,-10.3,-4.3c-2.7,-2.9,-3.9,-6.6,-3.9,-10.5c0,-3.9,1.2,-7.5,3.9,-10.3c2.6,-2.9,6.2,-4.3,10.1,-4.3c3.2,0,6.1,.9,8.5,2.8c1,-1.3,2.6,-2.1,4.3,-2.1h2.9c.5,0,1.1,0,1.5,.2c1.6,-.6,3.2,-.9,4.9,-.9c3.1,0,6.1,.9,8.4,3.1c2.4,2.3,3.4,5.3,3.4,8.4v11.9c0,2.9,-2.4,5.3,-5.3,5.3h-3c-2.2,0,-4.1,-1.3,-4.9,-3.2c-.9,1.9,-2.8,3.2,-4.9,3.2h-3c-1.6,0,-3.1,-.8,-4.1,-1.9ZM445,235.9c.3,-.4,.7,-.7,1.1,-1.1c2.3,-1.9,5,-2.8,7.9,-2.8c2.3,0,4.5,.5,6.5,1.6c2.1,1.2,3.7,2.9,4.6,5.1c.9,2.1,.4,4.5,-1.2,6c1.2,1.7,1.8,3.7,1.8,5.9c0,3.1,-1.2,5.9,-3.6,8c-2.2,2,-5.1,2.8,-8,2.8c-2.3,0,-4.6,-.4,-6.7,-1.5c-1,-.6,-1.9,-1.3,-2.8,-2.1c-1.2,1,-2.5,1.9,-3.9,2.5c-1.8,.7,-3.7,1.1,-5.7,1.1c-1.9,0,-3.9,-.3,-5.7,-1.1c-1.5,-.6,-2.9,-1.5,-4.1,-2.6c-.9,1.8,-2.7,3,-4.8,3h-3c-3,0,-5.4,-2.4,-5.4,-5.3v-9.7c-.1,0,-.2,0,-.3,-.1c-.1,.5,-.1,1,-.1,1.3v8.5c0,2.9,-2.4,5.3,-5.3,5.3h-3c-1.6,0,-3.1,-.8,-4.1,-2c-.4,.3,-.8,.6,-1.2,.8c-2.2,1.3,-4.7,1.9,-7.4,1.9c-3.9,0,-7.5,-1.4,-10.3,-4.3c-2.6,2.9,-6.1,4.3,-9.9,4.3c-.4,0,-.7,0,-1,0v2.4c0,3,-2.4,5.4,-5.4,5.4h-2.9c-3,0,-5.3,-2.4,-5.3,-5.4v-3.1h-1.5c-1.7,0,-3.3,-.8,-4.3,-2.3l-.4,-.5l-.3,.5c-1,1.5,-2.6,2.3,-4.4,2.3h-3.7c-.4,0,-.8,0,-1.1,-.1c-.4,.1,-.8,.1,-1.1,.1H324.3c-2.9,0,-5.3,-2.4,-5.3,-5.3V227.6c0,-2.9,2.4,-5.3,5.3,-5.3H339c2.9,0,5.3,2.4,5.3,5.3v3c0,.7,-.1,1.4,-.4,2.1h1.2c1.8,0,3.3,.7,4.3,2.2l.2,.3l.3,-.4c1,-1.4,2.5,-2.1,4.3,-2.1h3.7c.5,0,1.1,.1,1.6,.2c.5,-.1,1,-.2,1.6,-.2h2.8c.6,0,1.2,.1,1.7,.2c1.5,-.6,3,-.9,4.7,-.9c3.8,0,7.3,1.5,9.9,4.4c.1,0,.1,-.1,.1,-.1c2.7,-2.9,6.2,-4.3,10.1,-4.3c3.2,0,6.2,.9,8.6,2.8c1,-1.3,2.6,-2.1,4.3,-2.1H406c.5,0,1,.1,1.5,.2c1.3,-.6,2.8,-.8,4.3,-.8c.1,0,.2,0,.2,0V231c0,-2.9,2.4,-5.3,5.4,-5.3h3c2.9,0,5.3,2.4,5.3,5.3v2.1c.6,.3,1.1,.6,1.6,1.1c.7,-.4,1.3,-.8,2.1,-1.1c1.8,-.7,3.7,-1.1,5.6,-1.1c2,0,3.9,.4,5.6,1.2c1.7,.6,3.1,1.6,4.4,2.7ZM341.2,246.5c-.6,.3,-1.3,.4,-2,.5c.5,0,1,.1,1.4,.2Zm28.3,1.3c.1,.1,.3,.1,.3,.1c.1,0,.2,0,.2,0c.1,-.3,.1,-.6,.1,-.8c0,-.3,-.1,-1.1,-.2,-1.5q-.1,0,-.1,0c-.1,0,-.3,0,-.4,0c-.1,.3,-.1,.9,-.1,1.1c0,.3,0,.9,.2,1.1ZM434,246.7c0,.4,.1,.7,.4,1c.2,.2,.3,.3,.6,.3c.3,0,.4,-.1,.6,-.3c.3,-.3,.3,-.5,.3,-1c0,-.4,0,-.6,-.3,-.9c-.2,-.2,-.3,-.3,-.6,-.3c-.3,0,-.4,.1,-.6,.3c-.3,.3,-.4,.5,-.4,.9ZM282,153.9c16.2,0,29.4,13.2,29.4,29.5c0,16.3,-13.2,29.5,-29.4,29.5c-16.3,0,-29.5,-13.2,-29.5,-29.5c0,-16.3,13.2,-29.5,29.5,-29.5Z" class="g3_9" />
<path fill-rule="evenodd" d="M323.9,212V153.2l41.3,45.2v-43h6.4v58.8L330.3,169.5V212Zm92.9,-20.8c0,-4.7,-1.4,-8.5,-4,-11.4c-2.7,-2.9,-6.2,-4.3,-10.5,-4.3c-4.4,0,-7.9,1.3,-10.4,4c-2.5,2.6,-3.8,6.3,-3.8,11.1c0,5,1.3,8.9,3.8,11.6c2.5,2.8,6.1,4.2,10.7,4.2c4.4,0,7.9,-1.4,10.4,-4c2.5,-2.7,3.8,-6.4,3.8,-11.2ZM424,169.9v41.8h-7.2v-7.6c-1.8,3.1,-4,5.4,-6.7,7c-2.7,1.6,-5.7,2.4,-9.1,2.4c-6.2,0,-11.2,-2.1,-15,-6.2c-3.8,-4.1,-5.7,-9.6,-5.7,-16.4c0,-6.9,1.8,-12.4,5.5,-16.4c3.7,-4.1,8.7,-6.1,14.9,-6.1c3.6,0,6.7,.7,9.4,2.3c2.7,1.6,4.8,4,6.5,7.1v-7.9ZM438,212V174.1h-6.8v-5H438v-2.7c0,-5.9,.7,-9.9,2.2,-11.9c1.5,-2.1,4.2,-3.1,8,-3.1c.9,0,1.9,0,2.7,.2c.9,.1,1.7,.3,2.5,.6v6.2c-.7,-.4,-1.5,-.7,-2.3,-1c-.8,-.1,-1.6,-.3,-2.4,-.3c-1.8,0,-3,.6,-3.7,1.7c-.7,1.2,-1,4,-1,8.4v1.9h9.4v5h-9.2V212Zm56.5,-26.3c-.3,-3.8,-1.6,-6.7,-3.9,-8.7c-2.3,-2,-5.4,-3,-9.5,-3c-3.6,0,-6.6,1,-9,3.2c-2.5,2.1,-3.9,4.9,-4.3,8.5Zm8,5.8H467.8v.7c0,4.5,1.4,8.2,4.1,11c2.6,2.8,6.1,4.2,10.4,4.2c3,0,5.6,-.8,8,-2.3c2.3,-1.5,4.4,-3.8,6.2,-6.9l5.7,3.7c-2.2,3.8,-5,6.7,-8.4,8.7c-3.4,1.9,-7.4,2.9,-11.9,2.9c-6.6,0,-12,-2.2,-16.1,-6.4c-4.1,-4.3,-6.2,-9.9,-6.2,-16.8c0,-6.7,2.1,-12.1,6.1,-16.3c4.1,-4.3,9.4,-6.4,15.8,-6.4c6.4,0,11.5,2,15.3,6c3.8,4.1,5.7,9.6,5.7,16.5ZM510,212V169.8h5.4v8.8c1.6,-3.7,3.3,-6.3,5.1,-7.9c1.9,-1.5,4.1,-2.3,6.7,-2.3c.7,0,1.4,0,2.1,.2c.7,.1,1.4,.3,2,.6l-2,6.5c-.7,-.3,-1.3,-.5,-2,-.6c-.6,-.1,-1.2,-.2,-1.7,-.2c-3.2,0,-5.6,1.4,-7.2,4.1c-1.6,2.8,-2.4,6.9,-2.4,12.4V212Z" class="g4_9" />
<path fill-rule="evenodd" d="M790,167.5c7.7,0,15.1,3.5,19.7,9.8l.5,.7l-5.7,3.4l-.4,-.5C800.8,176.5,795.5,174,790,174c-9.3,0,-17.4,7.1,-17.4,16.6c0,9.4,8.1,16.6,17.4,16.6c5.7,0,11.1,-2.7,14.4,-7.3l.4,-.6l5.4,3.9l-.5,.6c-4.6,6.3,-12,9.9,-19.7,9.9c-12.9,0,-24.1,-10,-24.1,-23.1c0,-13.2,11.2,-23.1,24.1,-23.1Zm-38.5,44.8v-42h7.2v42Zm-1.7,-55.6c0,-1.4,.5,-2.7,1.5,-3.7c1.1,-1,2.3,-1.5,3.8,-1.5c1.4,0,2.7,.5,3.7,1.5c1,1.1,1.5,2.3,1.5,3.8c0,1.4,-.5,2.7,-1.5,3.7c-1,1,-2.3,1.5,-3.7,1.5c-1.5,0,-2.7,-.5,-3.8,-1.5c-1,-1,-1.5,-2.3,-1.5,-3.8Zm65,48.1l5.3,-4.2c1,2.3,2.2,4,3.8,5.1c1.5,1.2,3.3,1.7,5.4,1.7c2,0,3.7,-.6,4.9,-1.7c1.3,-1.2,1.9,-2.8,1.9,-4.7c0,-1.5,-.4,-2.7,-1.3,-3.7c-.8,-1,-2.3,-2,-4.4,-2.8l-1,-.4c-8.8,-3.6,-13.2,-8.1,-13.2,-13.5c0,-3.8,1.2,-6.9,3.5,-9.3c2.4,-2.4,5.5,-3.6,9.3,-3.6c3.1,0,5.8,.7,8.1,2.2c2.2,1.5,3.8,3.6,4.8,6.3l-5,3.7c-.8,-2,-1.9,-3.5,-3.3,-4.6c-1.4,-1,-3.1,-1.6,-5,-1.6c-1.8,0,-3.3,.6,-4.5,1.8c-1.1,1.2,-1.7,2.8,-1.7,4.6c0,2.7,2.4,4.9,7.2,6.6c.9,.4,1.6,.6,2.2,.8c3.9,1.5,6.6,3.2,8.2,5.2c1.5,1.9,2.3,4.4,2.3,7.6c0,4,-1.2,7.3,-3.7,9.8c-2.4,2.5,-5.6,3.8,-9.5,3.8c-3.4,0,-6.3,-.8,-8.7,-2.3c-2.3,-1.5,-4.2,-3.7,-5.6,-6.8ZM730.6,173.9h-6.7v-5.1h6.7V154.2h6.3v14.6h6.6v5.1h-6.6v38.4h-6.3Zm-38.9,31l5.3,-4.1c1,2.2,2.3,3.9,3.8,5c1.6,1.1,3.4,1.7,5.5,1.7c2,0,3.6,-.6,4.9,-1.7c1.3,-1.2,1.9,-2.7,1.9,-4.7c0,-1.4,-.5,-2.6,-1.3,-3.6c-.9,-1,-2.3,-1.9,-4.4,-2.7l-1.1,-.5c-8.8,-3.5,-13.2,-8,-13.2,-13.3c0,-3.7,1.2,-6.8,3.6,-9.2c2.4,-2.3,5.4,-3.5,9.2,-3.5c3.2,0,5.9,.7,8.1,2.2c2.3,1.4,3.9,3.5,4.8,6.2l-5,3.6c-.7,-2,-1.8,-3.5,-3.2,-4.5c-1.5,-1,-3.1,-1.6,-5.1,-1.6c-1.8,0,-3.3,.6,-4.4,1.8c-1.2,1.2,-1.7,2.7,-1.7,4.6c0,2.6,2.4,4.7,7.2,6.5c.9,.3,1.6,.6,2.1,.8c3.9,1.4,6.7,3.1,8.2,5c1.6,1.9,2.3,4.4,2.3,7.5c0,4,-1.2,7.3,-3.6,9.7c-2.5,2.5,-5.6,3.8,-9.6,3.8c-3.4,0,-6.2,-.8,-8.6,-2.3c-2.3,-1.4,-4.2,-3.7,-5.7,-6.7Zm-14.1,7.4v-42h7.2v42Zm-1.7,-55.6c0,-1.4,.5,-2.7,1.5,-3.7c1.1,-1,2.3,-1.5,3.8,-1.5c1.4,0,2.7,.5,3.7,1.5c1,1.1,1.5,2.3,1.5,3.8c0,1.4,-.5,2.7,-1.5,3.7c-1,1,-2.3,1.5,-3.7,1.5c-1.5,0,-2.7,-.5,-3.8,-1.5c-1,-1,-1.5,-2.3,-1.5,-3.8Zm-8.5,12.5v40.1c0,4.5,-.3,7.6,-1,9.5c-.6,1.9,-1.6,3.6,-3.1,5.1c-2,2,-4.4,3.6,-7.3,4.6c-2.9,1,-6.2,1.5,-9.9,1.5c-6.5,0,-11.6,-1.4,-15.2,-4.3c-3.7,-2.8,-5.6,-6.8,-5.7,-12h8.2v.5c0,3.1,1.1,5.5,3.4,7.2c2.2,1.6,5.3,2.5,9.4,2.5c2.9,0,5.4,-.5,7.5,-1.4c2.1,-.9,3.7,-2.3,4.7,-4.1c.7,-1,1.2,-2.1,1.4,-3.5c.3,-1.3,.5,-3.3,.5,-5.8v-6.8c-1.7,2.9,-3.9,5.1,-6.5,6.7c-2.7,1.6,-5.7,2.3,-9.1,2.3c-6.1,0,-11.1,-2,-14.8,-6c-3.8,-3.9,-5.7,-9.2,-5.7,-15.8c0,-6.7,1.8,-12,5.5,-15.9c3.7,-3.9,8.5,-5.9,14.7,-5.9c3.5,0,6.6,.8,9.3,2.3c2.7,1.5,4.8,3.8,6.4,6.8v-7.6Zm-7.1,20.5c0,-4.5,-1.3,-8.2,-4,-11c-2.6,-2.8,-6,-4.2,-10.3,-4.2c-4.4,0,-7.8,1.3,-10.3,3.9c-2.5,2.5,-3.7,6.2,-3.7,10.8c0,4.9,1.2,8.8,3.7,11.4c2.5,2.7,6,4.1,10.6,4.1c4.3,0,7.8,-1.4,10.3,-4c2.4,-2.6,3.7,-6.3,3.7,-11Zm-87.9,1.4c0,-3.1,.6,-6,1.7,-8.7c1.2,-2.8,2.8,-5.2,5,-7.4c2.2,-2.1,4.7,-3.7,7.4,-4.9c2.8,-1.1,5.7,-1.6,8.8,-1.6c3.1,0,6,.5,8.8,1.7c2.7,1.1,5.2,2.8,7.4,4.9c2.2,2.2,3.9,4.6,5,7.3c1.1,2.8,1.7,5.7,1.7,8.7c0,3.1,-.6,6,-1.7,8.7c-1.1,2.7,-2.8,5.1,-5,7.2c-2.2,2.3,-4.7,3.9,-7.5,5.1c-2.8,1.2,-5.7,1.8,-8.7,1.8c-3.1,0,-6,-.6,-8.8,-1.8c-2.7,-1.1,-5.2,-2.8,-7.4,-4.9c-2.2,-2.2,-3.8,-4.7,-5,-7.4c-1.1,-2.7,-1.7,-5.6,-1.7,-8.7Zm7.7,.1c0,4.4,1.5,8.2,4.4,11.2c3,3.1,6.6,4.7,10.8,4.7c4.2,0,7.8,-1.6,10.8,-4.7c2.9,-3,4.4,-6.8,4.4,-11.2c0,-4.5,-1.5,-8.3,-4.4,-11.3c-3,-3.1,-6.6,-4.7,-10.8,-4.7c-4.2,0,-7.8,1.6,-10.8,4.7c-3,3,-4.4,6.8,-4.4,11.3Zm-42.4,21.1v-58h6.9v51.4h21.9v6.6Z" class="g5_9" />
<path fill-rule="evenodd" d="M282,159.3c13.3,0,24.1,10.8,24.1,24.1c0,13.4,-10.8,24.2,-24.1,24.2c-13.4,0,-24.2,-10.8,-24.2,-24.2c0,-13.3,10.8,-24.1,24.2,-24.1Z" class="g6_9" />
<path fill-rule="evenodd" d="M259.1,177.4c-.1,1.2,.4,1.7,.8,2.1c.4,.4,.8,.6,1,1c.2,.3,.3,.8,.9,1.3c.6,.4,1.8,.9,2.7,1.3c1,.4,1.7,.7,2.3,1.1c.6,.3,1.1,.6,1.3,1.1c.1,.4,-.2,.9,-.4,1.6c-.1,.7,0,1.5,.4,2.2c.4,.8,1.1,1.6,1.5,2.2c.4,.6,.7,1.1,.8,1.8c.1,.7,.2,1.6,.1,2.3c-.1,.7,-.3,1.3,-.5,1.8c-.1,.5,-.2,1,-.2,2.1c0,1.1,.1,2.9,.5,4c.5,1.1,1.2,1.6,1.8,1.9c.5,.3,.8,.4,.9,-.3c0,-.7,-.1,-2.2,-.2,-3.3c-.1,-1.1,-.3,-1.9,0,-2.6c.4,-.7,1.1,-1.4,2.1,-2.1c.9,-.8,2.1,-1.6,2.7,-2.2c.7,-.6,.8,-1,1.2,-1.2c.4,-.2,1,-.2,1.4,-.9c.4,-.7,.5,-2.1,.6,-3.1c0,-1.1,.1,-1.8,-.3,-2.3c-.4,-.4,-1.3,-.6,-1.7,-.8c-.5,-.2,-.7,-.6,-1,-.9c-.3,-.4,-.8,-.7,-1.8,-1.2c-.9,-.5,-2.4,-1.1,-3.4,-1.4c-1,-.3,-1.7,-.4,-2.3,-.4c-.6,.1,-1.1,.4,-1.5,.3c-.4,-.1,-.5,-.5,-.7,-.8c-.2,-.3,-.4,-.4,-.6,-.7c-.2,-.2,-.4,-.5,-.7,-.8c-.3,-.3,-.7,-.5,-1.1,-.6c-.3,-.1,-.6,0,-.9,.1c-.4,.2,-.8,.4,-1,.2c-.3,-.3,-.4,-1,0,-1.4c.5,-.4,1.6,-.5,2.5,-.5c.8,0,1.5,.2,2,.3c.4,.2,.8,.4,.9,0c.1,-.3,-.1,-1.1,.1,-1.9c.2,-.8,.7,-1.7,1.8,-2.5c1.1,-.8,2.8,-1.5,3.8,-2.1c.9,-.6,1.2,-1,1.1,-1.4c-.1,-.3,-.6,-.5,-.9,-.9c-.3,-.5,-.3,-1.1,-1,-1.6c-.6,-.5,-1.8,-.8,-2.8,-1c-1.1,-.2,-1.9,-.3,-2.4,0c-.4,.4,-.5,1.1,-.8,1.5c-.3,.3,-.8,.1,-1.4,-.3c-.6,-.3,-1.2,-1,-1.7,-1.1c-.6,0,-1,.6,-1.7,1.5c-.7,.9,-1.6,2.2,-2.4,3.8c-.9,1.6,-1.6,3.5,-1.8,4.8Zm16.3,-16.9c0,.2,.1,.5,.3,.9c.2,.3,.5,.6,.6,.9c0,.4,-.1,.8,0,1.2c0,.4,.1,.8,.4,1.2c.3,.4,.8,.8,1.2,1.3c.3,.5,.5,1.2,.8,1.4c.3,.2,.8,-.1,1.2,-.7c.4,-.6,.9,-1.5,1.6,-2.1c.6,-.5,1.6,-.7,2.2,-1c.7,-.4,1.1,-1,1.4,-1.6c.3,-.7,.4,-1.5,.1,-1.8c-.4,-.4,-1.2,-.5,-2.4,-.5c-1.2,0,-2.8,0,-4,0c-1.3,.1,-2.1,.2,-2.6,.3c-.6,.1,-.8,.2,-.8,.5ZM302,174.3c-.3,.2,-1,.3,-1.6,.5c-.7,.1,-1.3,.4,-1.2,.8c0,.5,.8,1.1,1,1.6c.3,.5,.1,.8,-.7,.8c-.7,.1,-1.9,-.1,-2.6,-.4c-.7,-.3,-1,-.6,-1.5,-.9c-.4,-.4,-1,-.7,-1.7,-.8c-.6,-.2,-1.5,-.2,-2.3,0c-.9,.2,-1.9,.6,-2.7,1.3c-.9,.8,-1.7,2,-1.9,3.2c-.3,1.3,0,2.6,.6,3.5c.5,.9,1.3,1.4,2.5,1.4c1.3,.1,2.9,-.3,3.8,-.2c.8,0,.7,.4,.7,1c-.1,.5,-.2,1.1,0,1.7c.2,.5,.7,.9,1,1.3c.3,.4,.3,.8,.2,1.4c-.1,.6,-.2,1.4,0,2.1c.2,.8,.7,1.5,1,2c.3,.5,.5,.8,.8,1.1c.3,.2,.8,.5,1.5,-.2c.8,-.6,1.8,-2.1,2.5,-3.4c.8,-1.3,1.2,-2.3,1.2,-3c-.1,-.7,-.6,-1,-.6,-1.5c0,-.5,.5,-1.3,.9,-2.1c.5,-.7,.9,-1.4,.8,-1.9c-.1,-.5,-.8,-.7,-1.1,-1c-.3,-.4,-.4,-.8,-.3,-1.3c0,-.5,.2,-1.1,.4,-1.2c.3,-.1,.7,.2,1,.5c.3,.3,.5,.6,.8,.7c.3,.2,.6,.2,.8,-.2c.2,-.3,.2,-.9,-.1,-2.2c-.2,-1.4,-.8,-3.6,-1.8,-5.7c-.9,-2,-2.3,-4,-3.5,-5.5c-1.3,-1.5,-2.5,-2.5,-3.6,-2.9c-1.1,-.4,-2.1,-.2,-2.7,.1c-.6,.4,-.7,.8,-.6,1.2c.1,.4,.6,.8,1,1.1c.5,.3,.9,.5,1.3,.5c.3,0,.6,-.2,1,-.5c.3,-.3,.8,-.6,1.3,-.5c.5,.2,1.1,.7,1.2,1.1c.1,.4,-.2,.7,-1.1,.9c-.8,.1,-2.1,0,-3,0c-.9,.1,-1.5,.3,-1.9,.7c-.5,.4,-.8,1,-1.2,1.4c-.3,.5,-.7,.7,-1,.8c-.4,.2,-.7,.3,-.7,.7c0,.4,.3,1.2,.6,1.7c.3,.5,.6,.6,.9,.8c.3,.2,.7,.5,1.1,.3c.4,-.2,.7,-.7,1.1,-1.2c.3,-.5,.7,-.9,.9,-1c.3,-.1,.5,.1,.9,.5c.4,.4,.9,1,1.5,1.1c.5,.2,1.1,-.1,1.4,-.5c.3,-.4,.4,-1,.6,-1.5c.2,-.4,.6,-.7,1,-.7c.4,.1,.8,.5,1.1,.8c.3,.3,.5,.5,.7,.8c.2,.3,.5,.7,.3,.9Z" class="g5_9" />
<image preserveAspectRatio="none" x="77" y="549" width="946" height="44" xlink:href="img/2.png" />
<path fill-rule="evenodd" d="M120.8,551.3H979.3V502.8H120.8Z" class="g7_9" />
<image preserveAspectRatio="none" x="733" y="346" width="86" height="86" xlink:href="img/3.png" />
<image preserveAspectRatio="none" x="745" y="359" width="62" height="61" xlink:href="img/4.png" />
<image preserveAspectRatio="none" x="286" y="342" width="91" height="91" xlink:href="img/5.png" />
<image preserveAspectRatio="none" x="299" y="355" width="65" height="65" xlink:href="img/6.png" />
<image preserveAspectRatio="none" x="149" y="342" width="90" height="90" xlink:href="img/7.png" />
<image preserveAspectRatio="none" x="162" y="355" width="64" height="64" xlink:href="img/8.png" />
<image preserveAspectRatio="none" x="870" y="359" width="62" height="62" xlink:href="img/9.png" />
<image preserveAspectRatio="none" x="601" y="355" width="69" height="69" xlink:href="img/10.png" />
<image preserveAspectRatio="none" x="436" y="350" width="78" height="78" xlink:href="img/11.png" />
<image preserveAspectRatio="none" x="443" y="357" width="65" height="65" xlink:href="img/12.png" />
</svg>